<mxfile host="app.diagrams.net" agent="Mozilla/5.0 (Macintosh; Intel Mac OS X 10.15; rv:135.0) Gecko/20100101 Firefox/135.0" version="26.1.3">
  <diagram name="Page-1" id="cAdWGpSOSbzA9JGIc87n">
    <mxGraphModel dx="1834" dy="1195" grid="0" gridSize="10" guides="1" tooltips="1" connect="1" arrows="1" fold="1" page="0" pageScale="1" pageWidth="850" pageHeight="1100" math="0" shadow="0">
      <root>
        <mxCell id="0" />
        <mxCell id="1" parent="0" />
        <mxCell id="xCtcc4uWcP11O1_l7EfZ-22" value="AWS Cloud" style="points=[[0,0],[0.25,0],[0.5,0],[0.75,0],[1,0],[1,0.25],[1,0.5],[1,0.75],[1,1],[0.75,1],[0.5,1],[0.25,1],[0,1],[0,0.75],[0,0.5],[0,0.25]];outlineConnect=0;gradientColor=none;html=1;whiteSpace=wrap;fontSize=12;fontStyle=0;container=1;pointerEvents=0;collapsible=0;recursiveResize=0;shape=mxgraph.aws4.group;grIcon=mxgraph.aws4.group_aws_cloud_alt;strokeColor=#232F3E;fillColor=none;verticalAlign=top;align=left;spacingLeft=30;fontColor=#232F3E;dashed=0;" vertex="1" parent="1">
          <mxGeometry x="-363" y="-239" width="1120" height="679" as="geometry" />
        </mxCell>
        <mxCell id="xCtcc4uWcP11O1_l7EfZ-27" value="TeamCity VPC" style="points=[[0,0],[0.25,0],[0.5,0],[0.75,0],[1,0],[1,0.25],[1,0.5],[1,0.75],[1,1],[0.75,1],[0.5,1],[0.25,1],[0,1],[0,0.75],[0,0.5],[0,0.25]];outlineConnect=0;gradientColor=none;html=1;whiteSpace=wrap;fontSize=12;fontStyle=0;container=1;pointerEvents=0;collapsible=0;recursiveResize=0;shape=mxgraph.aws4.group;grIcon=mxgraph.aws4.group_vpc2;strokeColor=#8C4FFF;fillColor=none;verticalAlign=top;align=left;spacingLeft=30;fontColor=#AAB7B8;dashed=0;" vertex="1" parent="xCtcc4uWcP11O1_l7EfZ-22">
          <mxGeometry x="180" y="86" width="792" height="540" as="geometry" />
        </mxCell>
        <mxCell id="xCtcc4uWcP11O1_l7EfZ-28" value="Service Subnets" style="points=[[0,0],[0.25,0],[0.5,0],[0.75,0],[1,0],[1,0.25],[1,0.5],[1,0.75],[1,1],[0.75,1],[0.5,1],[0.25,1],[0,1],[0,0.75],[0,0.5],[0,0.25]];outlineConnect=0;gradientColor=none;html=1;whiteSpace=wrap;fontSize=12;fontStyle=0;container=1;pointerEvents=0;collapsible=0;recursiveResize=0;shape=mxgraph.aws4.group;grIcon=mxgraph.aws4.group_security_group;grStroke=0;strokeColor=#00A4A6;fillColor=#E6F6F7;verticalAlign=top;align=left;spacingLeft=30;fontColor=#147EBA;dashed=0;" vertex="1" parent="xCtcc4uWcP11O1_l7EfZ-27">
          <mxGeometry x="232" y="27.88" width="548" height="480.25" as="geometry" />
        </mxCell>
        <mxCell id="xCtcc4uWcP11O1_l7EfZ-23" value="&lt;b&gt;Application Load Balancer&lt;/b&gt;" style="sketch=0;outlineConnect=0;fontColor=#232F3E;gradientColor=none;fillColor=#8C4FFF;strokeColor=none;dashed=0;verticalLabelPosition=bottom;verticalAlign=top;align=center;html=1;fontSize=12;fontStyle=0;aspect=fixed;pointerEvents=1;shape=mxgraph.aws4.application_load_balancer;" vertex="1" parent="xCtcc4uWcP11O1_l7EfZ-22">
          <mxGeometry x="266" y="316.5" width="75" height="75" as="geometry" />
        </mxCell>
        <mxCell id="xCtcc4uWcP11O1_l7EfZ-24" value="&lt;b&gt;Amazon Certificate Manage&lt;/b&gt;r" style="sketch=0;points=[[0,0,0],[0.25,0,0],[0.5,0,0],[0.75,0,0],[1,0,0],[0,1,0],[0.25,1,0],[0.5,1,0],[0.75,1,0],[1,1,0],[0,0.25,0],[0,0.5,0],[0,0.75,0],[1,0.25,0],[1,0.5,0],[1,0.75,0]];outlineConnect=0;fontColor=#232F3E;fillColor=#DD344C;strokeColor=#ffffff;dashed=0;verticalLabelPosition=bottom;verticalAlign=top;align=center;html=1;fontSize=12;fontStyle=0;aspect=fixed;shape=mxgraph.aws4.resourceIcon;resIcon=mxgraph.aws4.certificate_manager_3;" vertex="1" parent="xCtcc4uWcP11O1_l7EfZ-22">
          <mxGeometry x="270" y="129" width="71" height="71" as="geometry" />
        </mxCell>
        <mxCell id="xCtcc4uWcP11O1_l7EfZ-25" value="&lt;b&gt;AWS Secrets Manager&lt;/b&gt;" style="sketch=0;points=[[0,0,0],[0.25,0,0],[0.5,0,0],[0.75,0,0],[1,0,0],[0,1,0],[0.25,1,0],[0.5,1,0],[0.75,1,0],[1,1,0],[0,0.25,0],[0,0.5,0],[0,0.75,0],[1,0.25,0],[1,0.5,0],[1,0.75,0]];outlineConnect=0;fontColor=#232F3E;fillColor=#DD344C;strokeColor=#ffffff;dashed=0;verticalLabelPosition=bottom;verticalAlign=top;align=center;html=1;fontSize=12;fontStyle=0;aspect=fixed;shape=mxgraph.aws4.resourceIcon;resIcon=mxgraph.aws4.secrets_manager;" vertex="1" parent="xCtcc4uWcP11O1_l7EfZ-22">
          <mxGeometry x="1010" y="316.5" width="73.5" height="73.5" as="geometry" />
        </mxCell>
        <object label="&lt;font color=&quot;#cc0000&quot;&gt;teamcity_alb_sg&lt;/font&gt;" stencilType="security-group" id="xCtcc4uWcP11O1_l7EfZ-1">
          <mxCell style="fillColor=none;strokeColor=#DD3522;verticalAlign=top;fontStyle=0;html=1;" vertex="1" rdfUpgraded="1" assetTypeVersion="3" parent="1">
            <mxGeometry x="-181" y="20" width="164" height="193" as="geometry" />
            <ResourceDescriptor resource="urn:x-design-inspector:v1:genid-01JNPBQX06E707JFZMGSZ73NAT-r81hTQU4Ieu1EthY3rdWw-2" serialization-version="v0" as="resourceDescriptor">
              <SemanticDataContainer serialization-version="v0">
                <StringLiteral content="G84zxL6PhhiwGJSVpWmhd" property="https://ontology.security.amazon.dev/foundation/diagram-visualization/05cc531c-d241-49c3-80dc-bd3777c5426f" />
                <IRI resource="https://ontology.security.amazon.dev/design-inspector/components/84a80b5f-5642-4a17-9585-ebfdb65f4bec" property="https://ontology.security.amazon.dev/foundation/system-modeling/04539597-4283-4f65-8090-ae67f9d3e949" />
                <IRI resource="https://ontology.security.amazon.dev/design-inspector/components/4f51991f-f3c6-4a47-9b00-013560ab92f4" property="http://www.w3.org/1999/02/22-rdf-syntax-ns#type" />
                <IRI resource="https://ontology.security.amazon.dev/foundation/graph-structure/0b4eeac8-04e5-4e85-869c-bd56fb947b7b" property="http://www.w3.org/1999/02/22-rdf-syntax-ns#type" />
                <StringLiteral content="teamcity_alb_sg" property="http://www.w3.org/2000/01/rdf-schema#label" />
                <StringLiteral content="r81hTQU4Ieu1EthY3rdWw-2" property="https://ontology.security.amazon.dev/foundation/diagram-visualization/a2255956-c3df-4c2c-b489-c307f68abc97" />
              </SemanticDataContainer>
            </ResourceDescriptor>
          </mxCell>
        </object>
        <mxCell id="xCtcc4uWcP11O1_l7EfZ-6" value="&lt;b&gt;Amazon Aurora Serverless&lt;br&gt;PostgreSQL&lt;/b&gt;" style="shape=image;verticalLabelPosition=bottom;verticalAlign=top;aspect=fixed;imageAspect=0;image=data:image/svg+xml,PHN2ZyB4bWxucz0iaHR0cDovL3d3dy53My5vcmcvMjAwMC9zdmciIHhtbG5zOnhsaW5rPSJodHRwOi8vd3d3LnczLm9yZy8xOTk5L3hsaW5rIiB3aWR0aD0iODBweCIgaGVpZ2h0PSI4MHB4IiB2aWV3Qm94PSIwIDAgODAgODAiIHZlcnNpb249IjEuMSI+JiN4YTsgICAgPHRpdGxlPkljb24tQXJjaGl0ZWN0dXJlLzY0L0FyY2hfQW1hem9uLUF1cm9yYV82NDwvdGl0bGU+JiN4YTsgICAgPGcgaWQ9Ikljb24tQXJjaGl0ZWN0dXJlLzY0L0FyY2hfQW1hem9uLUF1cm9yYV82NCIgc3Ryb2tlPSJub25lIiBzdHJva2Utd2lkdGg9IjEiIGZpbGw9Im5vbmUiIGZpbGwtcnVsZT0iZXZlbm9kZCI+JiN4YTsgICAgICAgIDxnIGlkPSJJY29uLUFyY2hpdGVjdHVyZS1CRy82NC9EYXRhYmFzZSIgZmlsbD0iI0M5MjVEMSI+JiN4YTsgICAgICAgICAgICA8cmVjdCBpZD0iUmVjdGFuZ2xlIiB4PSIwIiB5PSIwIiB3aWR0aD0iODAiIGhlaWdodD0iODAiLz4mI3hhOyAgICAgICAgPC9nPiYjeGE7ICAgICAgICA8cGF0aCBkPSJNNDUuMDkxMTA1NSwxOC4wNDUxMjU4IEw0Mi4wODMwNjY4LDE4LjA0NTEyNTggTDQyLjA4MzA2NjgsMTYuMDI3MDc1NSBMNDUuMDkxMTA1NSwxNi4wMjcwNzU1IEw0NS4wOTExMDU1LDEzIEw0Ny4wOTY0NjQ3LDEzIEw0Ny4wOTY0NjQ3LDE2LjAyNzA3NTUgTDUwLjEwNDUwMzQsMTYuMDI3MDc1NSBMNTAuMTA0NTAzNCwxOC4wNDUxMjU4IEw0Ny4wOTY0NjQ3LDE4LjA0NTEyNTggTDQ3LjA5NjQ2NDcsMjEuMDcyMjAxNCBMNDUuMDkxMTA1NSwyMS4wNzIyMDE0IEw0NS4wOTExMDU1LDE4LjA0NTEyNTggWiBNNTcuMTIzMjYwNCwyOS4xNDQ0MDI3IEw1NC4xMTUyMjE3LDI5LjE0NDQwMjcgTDU0LjExNTIyMTcsMjcuMTI2MzUyNCBMNTcuMTIzMjYwNCwyNy4xMjYzNTI0IEw1Ny4xMjMyNjA0LDI0LjA5OTI3NjkgTDU5LjEyODYxOTYsMjQuMDk5Mjc2OSBMNTkuMTI4NjE5NiwyNy4xMjYzNTI0IEw2Mi4xMzY2NTgzLDI3LjEyNjM1MjQgTDYyLjEzNjY1ODMsMjkuMTQ0NDAyNyBMNTkuMTI4NjE5NiwyOS4xNDQ0MDI3IEw1OS4xMjg2MTk2LDMyLjE3MTQ3ODIgTDU3LjEyMzI2MDQsMzIuMTcxNDc4MiBMNTcuMTIzMjYwNCwyOS4xNDQ0MDI3IFogTTUxLjkwMTMwNTIsNjEuMDMzNjM0MiBDNDkuOTg2MTg3Miw1Ni4xNjgxMTQ4IDQ1LjU2NjM3NTcsNTEuNzIwMzMxOSA0MC43Mjk0NDk0LDQ5Ljc5MjA4NDggQzQ1LjU2NjM3NTcsNDcuODY0ODQ2NyA0OS45ODYxODcyLDQzLjQxNzA2MzcgNTEuOTAxMzA1MiwzOC41NTA1MzUzIEM1My44MTY0MjMyLDQzLjQxNzA2MzcgNTguMjM2MjM0OCw0Ny44NjQ4NDY3IDYzLjA3MjE1ODQsNDkuNzkyMDg0OCBDNTguMjM2MjM0OCw1MS43MjAzMzE5IDUzLjgxNjQyMzIsNTYuMTY4MTE0OCA1MS45MDEzMDUyLDYxLjAzMzYzNDIgTDUxLjkwMTMwNTIsNjEuMDMzNjM0MiBaIE02Ny45OTczMjA0LDQ4Ljc4MzA1OTYgQzYwLjk0NDQ3MjMsNDguNzgzMDU5NiA1Mi45MDM5ODQ4LDQwLjY5MTY4NjggNTIuOTAzOTg0OCwzMy41OTQyMDM3IEM1Mi45MDM5ODQ4LDMzLjAzNzIyMTggNTIuNDU1Nzg3LDMyLjU4NTE3ODUgNTEuOTAxMzA1MiwzMi41ODUxNzg1IEM1MS4zNDY4MjM0LDMyLjU4NTE3ODUgNTAuODk4NjI1NiwzMy4wMzcyMjE4IDUwLjg5ODYyNTYsMzMuNTk0MjAzNyBDNTAuODk4NjI1Niw0MC42OTE2ODY4IDQyLjg1NzEzNTQsNDguNzgzMDU5NiAzNS44MDQyODczLDQ4Ljc4MzA1OTYgQzM1LjI1MDgwODIsNDguNzgzMDU5NiAzNC44MDE2MDc3LDQ5LjIzNTEwMjkgMzQuODAxNjA3Nyw0OS43OTIwODQ4IEMzNC44MDE2MDc3LDUwLjM1MDA3NTcgMzUuMjUwODA4Miw1MC44MDExMDk5IDM1LjgwNDI4NzMsNTAuODAxMTA5OSBDNDIuODU3MTM1NCw1MC44MDExMDk5IDUwLjg5ODYyNTYsNTguODkyNDgyOCA1MC44OTg2MjU2LDY1Ljk5MDk3NDggQzUwLjg5ODYyNTYsNjYuNTQ3OTU2NyA1MS4zNDY4MjM0LDY3IDUxLjkwMTMwNTIsNjcgQzUyLjQ1NTc4Nyw2NyA1Mi45MDM5ODQ4LDY2LjU0Nzk1NjcgNTIuOTAzOTg0OCw2NS45OTA5NzQ4IEM1Mi45MDM5ODQ4LDU4Ljg5MjQ4MjggNjAuOTQ0NDcyMyw1MC44MDExMDk5IDY3Ljk5NzMyMDQsNTAuODAxMTA5OSBDNjguNTUwNzk5Niw1MC44MDExMDk5IDY5LDUwLjM1MDA3NTcgNjksNDkuNzkyMDg0OCBDNjksNDkuMjM1MTAyOSA2OC41NTA3OTk2LDQ4Ljc4MzA1OTYgNjcuOTk3MzIwNCw0OC43ODMwNTk2IEw2Ny45OTczMjA0LDQ4Ljc4MzA1OTYgWiBNMTMuMDA1MzU5MSwyOC45MDMyNDU3IEMxNS45MjUxNjIxLDMxLjA0MDM2MSAyMS41OTgzMjMxLDMyLjE3MTQ3ODIgMjcuMDQyODczMiwzMi4xNzE0NzgyIEMzMi40ODc0MjMzLDMyLjE3MTQ3ODIgMzguMTYwNTg0MywzMS4wNDAzNjEgNDEuMDgwMzg3MiwyOC45MDMyNDU3IEw0MS4wODAzODcyLDM4LjU2NzY4ODggQzM5LjYzNTUyNiw0MC41MDA5ODEgMzQuMzIyMzI2OSw0Mi40MDYwMjA1IDI3LjI0MzQwOTEsNDIuNDA2MDIwNSBDMTkuMDk0NjMyMiw0Mi40MDYwMjA1IDEzLjAwNTM1OTEsMzkuODQzMDk2NiAxMy4wMDUzNTkxLDM3LjU1MTYwMDQgTDEzLjAwNTM1OTEsMjguOTAzMjQ1NyBaIE0yNy4wNDI4NzMyLDIxLjA3MjIwMTQgQzM1Ljc0MDExNTgsMjEuMDcyMjAxNCA0MS4wODAzODcyLDIzLjcxNjg1NjMgNDEuMDgwMzg3MiwyNS42MTI4MTQ2IEM0MS4wODAzODcyLDI3LjUwODc3MjkgMzUuNzQwMTE1OCwzMC4xNTM0Mjc5IDI3LjA0Mjg3MzIsMzAuMTUzNDI3OSBDMTguMzQ1NjMwNiwzMC4xNTM0Mjc5IDEzLjAwNTM1OTEsMjcuNTA4NzcyOSAxMy4wMDUzNTkxLDI1LjYxMjgxNDYgQzEzLjAwNTM1OTEsMjMuNzE2ODU2MyAxOC4zNDU2MzA2LDIxLjA3MjIwMTQgMjcuMDQyODczMiwyMS4wNzIyMDE0IEwyNy4wNDI4NzMyLDIxLjA3MjIwMTQgWiBNNDEuMDgwMzg3Miw1OC45NDE5MjUgQzQxLjA4MDM4NzIsNjEuMjY3NzI4IDM1LjA3NTMzOTMsNjMuODcwMDAzOSAyNy4wMzc4NTk4LDYzLjg3MDAwMzkgQzE5LjAwNjM5NjQsNjMuODcwMDAzOSAxMy4wMDUzNTkxLDYxLjI2NzcyOCAxMy4wMDUzNTkxLDU4Ljk0MTkyNSBMMTMuMDA1MzU5MSw1Mi40OTQyNTQyIEMxNS45NjEyNTg1LDU0Ljc1MDQzNDQgMjEuNzQ3NzIyNCw1NS45NDUxMjAyIDI3LjMwMDU2MTgsNTUuOTQ1MTIwMiBDMzEuMTYxODgwOSw1NS45NDUxMjAyIDM0Ljg5NTg1OTYsNTUuMzk2MjEwNSAzNy44MTA2NDkxLDU0LjM5OTI5MzcgTDM3LjE2NjkyODksNTIuNDg4MiBDMzQuNDUzNjc3OSw1My40MTU0OTQxIDMwLjk0OTMxMjgsNTMuOTI3MDY5OSAyNy4zMDA1NjE4LDUzLjkyNzA2OTkgQzE5LjExODY5NjUsNTMuOTI3MDY5OSAxMy4wMDUzNTkxLDUxLjM2NDE0NiAxMy4wMDUzNTkxLDQ5LjA3MjY0OTggTDEzLjAwNTM1OTEsNDAuOTc5MjU4OSBDMTUuOTUzMjM3MSw0My4yMzE0MDMxIDIxLjcxNDYzMzksNDQuNDI0MDcwOSAyNy4yNDM0MDkxLDQ0LjQyNDA3MDkgQzMzLjE2NzI0LDQ0LjQyNDA3MDkgMzguMjQ3ODE3NCw0My4xOTYwODcyIDQxLjA4MDM4NzIsNDEuMjUxNjk1NyBMNDEuMDgwMzg3Miw0NC4yNzk3ODAzIEw0My4wODU3NDY0LDQ0LjI3OTc4MDMgTDQzLjA4NTc0NjQsMjUuNjEyODE0NiBDNDMuMDg1NzQ2NCwyMS4zNTI3MTA0IDM0LjgyMDY1ODcsMTkuMDU0MTUxIDI3LjA0Mjg3MzIsMTkuMDU0MTUxIEMxOS41ODE5MzQ1LDE5LjA1NDE1MSAxMS42OTE4NDg5LDIxLjE3NTEyMTkgMTEuMDYyMTY2MSwyNS4xMDgzMDIgTDExLDI1LjEwODMwMiBMMTEsNTguOTQxOTI1IEMxMSw2My40NTMyNzY1IDE5LjI2MzA4MjQsNjUuODg4MDU0MyAyNy4wMzc4NTk4LDY1Ljg4ODA1NDMgQzM0LjgxNzY1MDYsNjUuODg4MDU0MyA0My4wODU3NDY0LDYzLjQ1MzI3NjUgNDMuMDg1NzQ2NCw1OC45NDE5MjUgTDQzLjA4NTc0NjQsNTUuMzc5MDU3MSBMNDEuMDgwMzg3Miw1NS4zNzkwNTcxIEw0MS4wODAzODcyLDU4Ljk0MTkyNSBaIiBpZD0iQW1hem9uLUF1cm9yYV9JY29uXzY0X1NxdWlkIiBmaWxsPSIjRkZGRkZGIi8+JiN4YTsgICAgPC9nPiYjeGE7PC9zdmc+;html=1;" vertex="1" rdfUpgraded="1" assetTypeVersion="3" parent="1">
          <mxGeometry x="400" y="-42" width="70" height="70" as="geometry" />
          <ResourceDescriptor resource="urn:x-design-inspector:v1:genid-01JNPBQX06E707JFZMGSZ73NAT-pYknL_7UqS5cD-sUftLGr" serialization-version="v0" as="resourceDescriptor">
            <SemanticDataContainer serialization-version="v0">
              <IRI resource="https://ontology.security.amazon.dev/design-inspector/stencils" property="http://www.w3.org/2000/01/rdf-schema#isDefinedBy" />
              <IRI resource="https://ontology.security.amazon.dev/design-inspector/components/29b955f9-c605-40b1-a4ea-0e0bf0db67f4" property="https://ontology.security.amazon.dev/foundation/system-modeling/04539597-4283-4f65-8090-ae67f9d3e949" />
              <StringLiteral content="G84zxL6PhhiwGJSVpWmhd" property="https://ontology.security.amazon.dev/foundation/diagram-visualization/05cc531c-d241-49c3-80dc-bd3777c5426f" />
              <IRI resource="https://ontology.security.amazon.dev/foundation/graph-structure/0b4eeac8-04e5-4e85-869c-bd56fb947b7b" property="http://www.w3.org/1999/02/22-rdf-syntax-ns#type" />
              <StringLiteral content="Amazon Aurora ServerlessPostgreSQL" property="http://www.w3.org/2000/01/rdf-schema#label" />
              <StringLiteral content="pYknL_7UqS5cD-sUftLGr" property="https://ontology.security.amazon.dev/foundation/diagram-visualization/a2255956-c3df-4c2c-b489-c307f68abc97" />
            </SemanticDataContainer>
          </ResourceDescriptor>
        </mxCell>
        <object label="" stencilType="generic-channel" id="xCtcc4uWcP11O1_l7EfZ-7">
          <mxCell style="edgeStyle=orthogonalEdgeStyle;rounded=0;html=1;jettySize=auto;orthogonalLoop=1;" edge="1" rdfUpgraded="1" assetTypeVersion="3" pageId="G84zxL6PhhiwGJSVpWmhd" parent="1" source="xCtcc4uWcP11O1_l7EfZ-8">
            <mxGeometry relative="1" as="geometry">
              <mxPoint x="-136" y="115" as="targetPoint" />
            </mxGeometry>
            <ResourceDescriptor resource="urn:x-design-inspector:v1:genid-01JNPBQX06E707JFZMGSZ73NAT-r81hTQU4Ieu1EthY3rdWw-7" serialization-version="v0" as="resourceDescriptor">
              <SemanticDataContainer serialization-version="v0">
                <IRI resource="urn:x-design-inspector:v1:genid-01JNPBQX06E707JFZMGSZ73NAT-5zpTftzPDePtc_w1D5Yql" property="https://ontology.security.amazon.dev/foundation/graph-structure/d1fc066e-3862-4ae0-8304-6cef42f40a50" />
                <IRI resource="https://ontology.security.amazon.dev/design-inspector/components/84a80b5f-5642-4a17-9585-ebfdb65f4bec" property="https://ontology.security.amazon.dev/foundation/system-modeling/04539597-4283-4f65-8090-ae67f9d3e949" />
                <StringLiteral content="G84zxL6PhhiwGJSVpWmhd" property="https://ontology.security.amazon.dev/foundation/diagram-visualization/05cc531c-d241-49c3-80dc-bd3777c5426f" />
                <IRI resource="https://ontology.security.amazon.dev/foundation/graph-structure/65157620-74b7-470e-bd9d-b9bf56b6cb4b" property="http://www.w3.org/1999/02/22-rdf-syntax-ns#type" />
                <StringLiteral content="r81hTQU4Ieu1EthY3rdWw-7" property="https://ontology.security.amazon.dev/foundation/diagram-visualization/a2255956-c3df-4c2c-b489-c307f68abc97" />
                <IRI resource="urn:x-design-inspector:v1:genid-01JNPBQX06E707JFZMGSZ73NAT-7EjNTZzHRdGjNUZSzJQ9J" property="https://ontology.security.amazon.dev/foundation/graph-structure/617be0ed-cf17-4a01-a75d-81ed3a472532" />
              </SemanticDataContainer>
            </ResourceDescriptor>
          </mxCell>
        </object>
        <mxCell id="xCtcc4uWcP11O1_l7EfZ-8" value="&lt;b&gt;Amazon Route 53&lt;/b&gt;" style="shape=image;verticalLabelPosition=bottom;verticalAlign=top;aspect=fixed;imageAspect=0;image=data:image/svg+xml,PHN2ZyB4bWxucz0iaHR0cDovL3d3dy53My5vcmcvMjAwMC9zdmciIHhtbG5zOnhsaW5rPSJodHRwOi8vd3d3LnczLm9yZy8xOTk5L3hsaW5rIiB3aWR0aD0iODBweCIgaGVpZ2h0PSI4MHB4IiB2aWV3Qm94PSIwIDAgODAgODAiIHZlcnNpb249IjEuMSI+JiN4YTsgICAgPHRpdGxlPkljb24tQXJjaGl0ZWN0dXJlLzY0L0FyY2hfQW1hem9uLVJvdXRlLTUzXzY0PC90aXRsZT4mI3hhOyAgICA8ZyBpZD0iSWNvbi1BcmNoaXRlY3R1cmUvNjQvQXJjaF9BbWF6b24tUm91dGUtNTNfNjQiIHN0cm9rZT0ibm9uZSIgc3Ryb2tlLXdpZHRoPSIxIiBmaWxsPSJub25lIiBmaWxsLXJ1bGU9ImV2ZW5vZGQiPiYjeGE7ICAgICAgICA8ZyBpZD0iSWNvbi1BcmNoaXRlY3R1cmUtQkcvNjQvTmV0d29ya2luZy1Db250ZW50LURlbGl2ZXJ5IiBmaWxsPSIjOEM0RkZGIj4mI3hhOyAgICAgICAgICAgIDxyZWN0IGlkPSJSZWN0YW5nbGUiIHg9IjAiIHk9IjAiIHdpZHRoPSI4MCIgaGVpZ2h0PSI4MCIvPiYjeGE7ICAgICAgICA8L2c+JiN4YTsgICAgICAgIDxwYXRoIGQ9Ik00OC42OTIsNDAuNjc5NTEwOSBDNDkuNDMxLDQxLjM2Mjc3MzIgNDkuODAxLDQyLjI3ODEyNDYgNDkuODAxLDQzLjQyNzU2NTkgQzQ5LjgwMSw0NC42NzgwNDYgNDkuMzUxLDQ1LjY3NjQyOTMgNDguNDUyLDQ2LjQyMjcxNTkgQzQ3LjU1Miw0Ny4xNzAwMDI4IDQ2LjM0Myw0Ny41NDMxNDYgNDQuODI2LDQ3LjU0MzE0NiBDNDMuNjI3LDQ3LjU0MzE0NiA0Mi40NCw0Ny4yODcwNDc3IDQxLjI2Niw0Ni43NzY4NTE4IEw0MS4yNjYsNDUuMjQ1MjYzOCBDNDIuNjU3LDQ1LjcwNTQ0MDUgNDMuODQzLDQ1LjkzNDUyODQgNDQuODI2LDQ1LjkzNDUyODQgQzQ1Ljc5Niw0NS45MzQ1Mjg0IDQ2LjU0Miw0NS43MTc0NDUxIDQ3LjA2NSw0NS4yODQyNzg4IEM0Ny41ODgsNDQuODUwMTEyMSA0Ny44NDksNDQuMjMwODc0NCA0Ny44NDksNDMuNDI3NTY1OSBDNDcuODQ5LDQxLjg4Mjk3MjkgNDYuODc0LDQxLjExMDY3NjQgNDQuOTIxLDQxLjExMDY3NjQgQzQ0LjMwOSw0MS4xMTA2NzY0IDQzLjcwMyw0MS4xNDI2ODg3IDQzLjEwMyw0MS4yMDU3MTI5IEw0My4xMDMsMzkuOTQzMjI4MiBMNDcuMTIzLDM1LjU1ODU0NDggTDQxLjQ1OCwzNS41NTg1NDQ4IEw0MS40NTgsMzMuOTg4OTQyMiBMNDkuMjQ3LDMzLjk4ODk0MjIgTDQ5LjI0NywzNS41MDE1MjI5IEw0NS4zMDQsMzkuNjc1MTI1MyBDNDUuMzY5LDM5LjY2MjEyMDMgNDUuNDMxLDM5LjY1NjExOCA0NS40OTYsMzkuNjU2MTE4IEw0NS42ODcsMzkuNjU2MTE4IEM0Ni45NTEsMzkuNjU2MTE4IDQ3Ljk1MiwzOS45OTcyNDg5IDQ4LjY5Miw0MC42Nzk1MTA5IE0zNy41NzQsNDAuMzQ1MzgyNiBDMzguMzUxLDQxLjA3MjY2MTggMzguNzQsNDIuMDc0MDQ2MyAzOC43NCw0My4zNDk1MzYgQzM4Ljc0LDQ0LjYwMTAxNjUgMzguMjg4LDQ1LjYxMjQwNDggMzcuMzgxLDQ2LjM4NDcwMTMgQzM2LjQ3NSw0Ny4xNTY5OTc4IDM1LjI4Myw0Ny41NDMxNDYgMzMuODAzLDQ3LjU0MzE0NiBDMzIuNTAzLDQ3LjU0MzE0NiAzMS4yODQsNDcuMjg3MDQ3NyAzMC4xNDgsNDYuNzc2ODUxOCBMMzAuMTQ4LDQ1LjI0NTI2MzggQzMxLjU2NCw0NS43MDU0NDA1IDMyLjc3Niw0NS45MzQ1Mjg0IDMzLjc4NCw0NS45MzQ1Mjg0IEMzNC43NTQsNDUuOTM0NTI4NCAzNS40OTcsNDUuNzE1NDQ0MyAzNi4wMTMsNDUuMjc0Mjc0OSBDMzYuNTMsNDQuODM0MTA2IDM2Ljc4OSw0NC4xOTk4NjI0IDM2Ljc4OSw0My4zNjk1NDM3IEMzNi43ODksNDIuNDYzMTk1NyAzNi41NDYsNDEuODA1OTQzNCAzNi4wNjEsNDEuMzk3Nzg2NyBDMzUuNTc2LDQwLjk4OTYyOTkgMzQuNzg1LDQwLjc4NDU1MTIgMzMuNjg4LDQwLjc4NDU1MTIgQzMyLjg5Nyw0MC43ODQ1NTEyIDMxLjkwOSw0MC44NDk1NzYyIDMwLjcyMiw0MC45NzY2MjUgTDMwLjcyMiwzOS43MTMxMzk5IEwzMS4wODYsMzMuOTg4OTQyMiBMMzguMDcxLDMzLjk4ODk0MjIgTDM4LjA3MSwzNS41NTg1NDQ4IEwzMi42OTMsMzUuNTU4NTQ0OCBMMzIuNDQ0LDM5LjQ0NTAzNjkgQzMzLjE0NiwzOS4zMTc5ODgyIDMzLjc3NywzOS4yNTM5NjM2IDM0LjMzOCwzOS4yNTM5NjM2IEMzNS43MTYsMzkuMjUzOTYzNiAzNi43OTUsMzkuNjE3MTAzIDM3LjU3NCw0MC4zNDUzODI2IE01MS45NTcsNTQuMzc3NzcgQzQ3LjEwMyw1NS4yNTAxMDUgNDIuODUyLDU3LjIyNjg2MzkgNDAsNTguODM3NDgyMiBDMzcuMTQ3LDU3LjIyNjg2MzkgMzIuODk2LDU1LjI1MDEwNSAyOC4wNDMsNTQuMzc3NzcgQzI2LjY3Nyw1NC4xMzI2NzU5IDE5Ljg2OSw1Mi43MTExMzAyIDE5Ljg2OSw0OC43NzU2MTkyIEMxOS44NjksNDYuOTUxOTE5IDIwLjUyMiw0NS43NDI0NTQ3IDIxLjc3Niw0My41ODI2MjU1IEMyMy4yNzQsNDAuOTk5NjMzOCAyNS4xMzgsMzcuNzg0Mzk5NCAyNS4xMzgsMzMuMTU1NjIyMiBDMjUuMTM4LDI5Ljg0NzM1MjEgMjQuMjcxLDI2LjY3NTEzNDIgMjIuNTU5LDIzLjcxNDk5NzcgQzIyLjc2LDIzLjQ2NjkwMjUgMjIuOTY1LDIzLjIxNTgwNjEgMjMuMTcxLDIyLjk2MjcwODkgQzI1LjcwNywyNC4yMzAxOTU1IDI4LjM0NywyNC44NzI0NDIxIDMxLjAzMSwyNC44NzI0NDIxIEMzNC4zMTEsMjQuODcyNDQyMSAzNy4zMjUsMjQuMDExMTExNCA0MCwyMi4zMTE0NTg5IEM0Mi42NzQsMjQuMDExMTExNCA0NS42ODgsMjQuODcyNDQyMSA0OC45NjgsMjQuODcyNDQyMSBDNTEuNjUyLDI0Ljg3MjQ0MjEgNTQuMjkzLDI0LjIzMDE5NTUgNTYuODI5LDIyLjk2MjcwODkgQzU3LjAzNCwyMy4yMTU4MDYxIDU3LjIzOSwyMy40NjY5MDI1IDU3LjQ0LDIzLjcxNDk5NzcgQzU1LjcyOCwyNi42NzUxMzQyIDU0Ljg2MSwyOS44NDczNTIxIDU0Ljg2MSwzMy4xNTU2MjIyIEM1NC44NjEsMzcuNzg0Mzk5NCA1Ni43MjUsNDAuOTk5NjMzOCA1OC4yMjYsNDMuNTg2NjI3IEM1OS40NzcsNDUuNzQyNDU0NyA2MC4xMyw0Ni45NTE5MTkgNjAuMTMsNDguNzc1NjE5MiBDNjAuMTMsNTIuNzExMTMwMiA1My4zMjIsNTQuMTMyNjc1OSA1MS45NTcsNTQuMzc3NzcgTTU2Ljg2MSwzMy4xNTU2MjIyIEM1Ni44NjEsMjkuOTk3NDA5NyA1Ny43NTIsMjYuOTcwMjQ3NSA1OS41MDcsMjQuMTU4MTY3OSBDNTkuNzM1LDIzLjc5NTAyODQgNTkuNzA2LDIzLjMyNzg0OTEgNTkuNDM0LDIyLjk5NTcyMTYgQzU4LjkyNiwyMi4zNzM0ODI3IDU4LjM5MywyMS43MTgyMzExIDU3Ljg2NywyMS4wNjY5ODExIEM1Ny41NjIsMjAuNjg5ODM2MyA1Ny4wMzIsMjAuNTg1Nzk2MyA1Ni42MDYsMjAuODE5ODg2MiBDNTQuMTQzLDIyLjE4MTQwODkgNTEuNTc0LDIyLjg3MTY3MzkgNDguOTY4LDIyLjg3MTY3MzkgQzQ1LjgyNCwyMi44NzE2NzM5IDQzLjA3NywyMi4wMjYzNDk0IDQwLjU2OSwyMC4yODg2ODIzIEM0MC4yMjcsMjAuMDUxNTkxMiAzOS43NzIsMjAuMDUxNTkxMiAzOS40MywyMC4yODg2ODIzIEMzNi45MjIsMjIuMDI2MzQ5NCAzNC4xNzUsMjIuODcxNjczOSAzMS4wMzEsMjIuODcxNjczOSBDMjguNDI1LDIyLjg3MTY3MzkgMjUuODU2LDIyLjE4MTQwODkgMjMuMzkzLDIwLjgxOTg4NjIgQzIyLjk2OCwyMC41ODU3OTYzIDIyLjQzNywyMC42ODk4MzYzIDIyLjEzMiwyMS4wNjY5ODExIEMyMS42MDYsMjEuNzE4MjMxMSAyMS4wNzMsMjIuMzczNDgyNyAyMC41NjUsMjIuOTk1NzIxNiBDMjAuMjk0LDIzLjMyNzg0OTEgMjAuMjY0LDIzLjc5NTAyODQgMjAuNDkyLDI0LjE1ODE2NzkgQzIyLjI0OCwyNi45NzAyNDc1IDIzLjEzOCwyOS45OTc0MDk3IDIzLjEzOCwzMy4xNTU2MjIyIEMyMy4xMzgsMzcuMjQ2MTkyNyAyMS40MjMsNDAuMjAyMzI3NyAyMC4wNDUsNDIuNTgxMjQxIEMxOC42OTUsNDQuOTA0MTMyOCAxNy44NjksNDYuNDQ2NzI1MSAxNy44NjksNDguNzc1NjE5MiBDMTcuODY5LDU0LjE2NDY4ODIgMjUuMzg1LDU1LjkzNDM2NzcgMjcuNjg5LDU2LjM0NzUyNjMgQzMyLjU0OSw1Ny4yMjA4NjE2IDM2Ljc5Myw1OS4yODA2NTI0IDM5LjQ5Nyw2MC44NTQyNTY1IEMzOS42NTIsNjAuOTQ1MjkxNSAzOS44MjYsNjAuOTkwMzA4OCA0MCw2MC45OTAzMDg4IEM0MC4xNzMsNjAuOTkwMzA4OCA0MC4zNDcsNjAuOTQ1MjkxNSA0MC41MDMsNjAuODU0MjU2NSBDNDMuMjA3LDU5LjI4MDY1MjQgNDcuNDUsNTcuMjIwODYxNiA1Mi4zMSw1Ni4zNDc1MjYzIEM1NC42MTQsNTUuOTM0MzY3NyA2Mi4xMyw1NC4xNjQ2ODgyIDYyLjEzLDQ4Ljc3NTYxOTIgQzYyLjEzLDQ2LjQ0NjcyNTEgNjEuMzA0LDQ0LjkwNDEzMjggNTkuOTU0LDQyLjU3ODIzOTkgQzU4LjU3Niw0MC4yMDIzMjc3IDU2Ljg2MSwzNy4yNDYxOTI3IDU2Ljg2MSwzMy4xNTU2MjIyIE01Mi45OTQsNjAuMTU2OTg4OCBDNDYuODYzLDYxLjI1OTQxMjEgNDEuNzIzLDY0LjU1NjY3OCA0MCw2NS43NjQxNDE2IEMzOC4yNzYsNjQuNTU2Njc4IDMzLjEzNiw2MS4yNTk0MTIxIDI3LjAwNSw2MC4xNTY5ODg4IEMxNC45MzcsNTcuOTg5MTU2NiAxNCw1MC44OTc0MzM4IDE0LDQ4Ljc3NTYxOTIgQzE0LDQ1LjI4NTI3OTIgMTUuMzcxLDQyLjkyMzM3MjQgMTYuNjk3LDQwLjYzNzQ5NDggQzE3Ljk2MSwzOC40NTk2NTg2IDE5LjI2OCwzNi4yMDY3OTM3IDE5LjI2OCwzMy4xNTU2MjIyIEMxOS4yNjgsMjguMzM1NzcxOCAxNi40ODUsMjQuOTMxNDY0OCAxNS4xMTIsMjMuNTQ1OTMyOCBDMTYuNTU2LDIxLjc4OTI1ODQgMjAuMjA0LDE3LjM0MTU1MDggMjIuMDAzLDE1LjAyMzY2MDkgQzI0LjcyOSwxNy41OTY2NDg3IDI3Ljg5OCwxOS4wMDAxODc2IDMxLjAzMSwxOS4wMDAxODc2IEMzNC41MDksMTkuMDAwMTg3NiAzNy4zODUsMTcuNTg0NjQ0MSA0MCwxNC41NjQ0ODQ2IEM0Mi42MTQsMTcuNTg0NjQ0MSA0NS40OSwxOS4wMDAxODc2IDQ4Ljk2OCwxOS4wMDAxODc2IEM1Mi4xMDEsMTkuMDAwMTg3NiA1NS4yNywxNy41OTY2NDg3IDU3Ljk5NywxNS4wMjM2NjA5IEM1OS43OTYsMTcuMzQxNTUwOCA2My40NDMsMjEuNzg5MjU4NCA2NC44ODcsMjMuNTQ1OTMyOCBDNjMuNTE0LDI0LjkzMTQ2NDggNjAuNzMxLDI4LjMzNTc3MTggNjAuNzMxLDMzLjE1NTYyMjIgQzYwLjczMSwzNi4yMDY3OTM3IDYyLjAzOSwzOC40NTk2NTg2IDYzLjMwMiw0MC42Mzc0OTQ4IEM2NC42MjksNDIuOTIzMzcyNCA2Niw0NS4yODUyNzkyIDY2LDQ4Ljc3NTYxOTIgQzY2LDUwLjg5NzQzMzggNjUuMDYyLDU3Ljk4OTE1NjYgNTIuOTk0LDYwLjE1Njk4ODggTTY1LjAzMiwzOS42MzQxMDk1IEM2My43OTcsMzcuNTA1MjkyMiA2Mi43MzEsMzUuNjY3NTg2NyA2Mi43MzEsMzMuMTU1NjIyMiBDNjIuNzMxLDI3Ljg2NzU5MiA2Ni44NDcsMjQuNDQ3Mjc4OSA2Ni44ODcsMjQuNDE1MjY2NiBDNjcuMDk0LDI0LjI0NzIwMjEgNjcuMjI2LDI0LjAwMzEwODMgNjcuMjU0LDIzLjczNzAwNjIgQzY3LjI4LDIzLjQ3MDkwNCA2Ny4yLDIzLjIwNTgwMjIgNjcuMDMsMjIuOTk5NzIzMSBDNjYuOTYzLDIyLjkxOTY5MjQgNjAuNDA4LDE0Ljk3MjY0MTMgNTguOTA2LDEyLjkxMzg1MDkgQzU4LjczLDEyLjY3Mjc1ODMgNTguNDU3LDEyLjUyMjcwMDcgNTguMTU5LDEyLjUwNDY5MzggQzU3Ljg2LDEyLjQ4MjY4NTMgNTcuNTcyLDEyLjYwMTczMSA1Ny4zNjgsMTIuODE5ODE0OCBDNTQuODQ4LDE1LjUxNDg0OTUgNTEuODY2LDE2Ljk5OTQxOTQgNDguOTY4LDE2Ljk5OTQxOTQgQzQ1Ljc2NCwxNi45OTk0MTk0IDQzLjI0NCwxNS41NzE4NzEzIDQwLjc5NCwxMi4zNzA2NDIzIEM0MC40MTUsMTEuODc2NDUyNiAzOS41ODUsMTEuODc2NDUyNiAzOS4yMDYsMTIuMzcwNjQyMyBDMzYuNzU1LDE1LjU3MTg3MTMgMzQuMjM1LDE2Ljk5OTQxOTQgMzEuMDMxLDE2Ljk5OTQxOTQgQzI4LjEzMywxNi45OTk0MTk0IDI1LjE1MSwxNS41MTQ4NDk1IDIyLjYzMSwxMi44MTk4MTQ4IEMyMi40MjcsMTIuNjAxNzMxIDIyLjEzNywxMi40Nzc2ODM0IDIxLjg0LDEyLjUwNDY5MzggQzIxLjU0MywxMi41MjI3MDA3IDIxLjI2OSwxMi42NzI3NTgzIDIxLjA5MywxMi45MTM4NTA5IEMxOS41OTEsMTQuOTcyNjQxMyAxMy4wMzYsMjIuOTE5NjkyNCAxMi45NjksMjIuOTk5NzIzMSBDMTIuOCwyMy4yMDU4MDIyIDEyLjcyLDIzLjQ3MDkwNCAxMi43NDcsMjMuNzM2MDA1OCBDMTIuNzczLDI0LjAwMTEwNzYgMTIuOTA0LDI0LjI0NTIwMTMgMTMuMTEsMjQuNDEzMjY1OCBDMTMuMTUyLDI0LjQ0NzI3ODkgMTcuMjY4LDI3Ljg2NzU5MiAxNy4yNjgsMzMuMTU1NjIyMiBDMTcuMjY4LDM1LjY2NzU4NjcgMTYuMjAyLDM3LjUwNTI5MjIgMTQuOTY3LDM5LjYzNDEwOTUgQzEzLjU3Niw0Mi4wMzEwMjk4IDEyLDQ0Ljc0NzA3MjUgMTIsNDguNzc1NjE5MiBDMTIsNTUuNDg3MTk2IDE3LjQ3Nyw2MC40NzgxMTIxIDI2LjY1Miw2Mi4xMjY3NDUxIEMzMy41NTksNjMuMzY4MjIxNyAzOS4zMzQsNjcuNzQ4OTAzNiAzOS4zOTEsNjcuNzkzOTIwOSBDMzkuNTcsNjcuOTMwOTczNSAzOS43ODUsNjggNDAsNjggQzQwLjIxNCw2OCA0MC40MjksNjcuOTMwOTczNSA0MC42MDksNjcuNzkyOTIwNSBDNDAuNjY3LDY3Ljc0ODkwMzYgNDYuNDIyLDYzLjM3MTIyMjkgNTMuMzQ3LDYyLjEyNjc0NTEgQzYyLjUyMiw2MC40NzgxMTIxIDY4LDU1LjQ4NzE5NiA2OCw0OC43NzU2MTkyIEM2OCw0NC43NDcwNzI1IDY2LjQyMyw0Mi4wMzEwMjk4IDY1LjAzMiwzOS42MzQxMDk1IiBpZD0iQW1hem9uLVJvdXRlLTUzLUljb25fNjRfU3F1aWQiIGZpbGw9IiNGRkZGRkYiLz4mI3hhOyAgICA8L2c+JiN4YTs8L3N2Zz4;html=1;" vertex="1" rdfUpgraded="1" assetTypeVersion="3" parent="1">
          <mxGeometry x="-323" y="80" width="70" height="70" as="geometry" />
          <ResourceDescriptor resource="urn:x-design-inspector:v1:genid-01JNPBQX06E707JFZMGSZ73NAT-5zpTftzPDePtc_w1D5Yql" serialization-version="v0" as="resourceDescriptor">
            <SemanticDataContainer serialization-version="v0">
              <IRI resource="https://ontology.security.amazon.dev/design-inspector/stencils" property="http://www.w3.org/2000/01/rdf-schema#isDefinedBy" />
              <IRI resource="https://ontology.security.amazon.dev/design-inspector/components/3e0b202c-771f-4cd3-b0b4-c0bca4588354" property="https://ontology.security.amazon.dev/foundation/system-modeling/04539597-4283-4f65-8090-ae67f9d3e949" />
              <StringLiteral content="G84zxL6PhhiwGJSVpWmhd" property="https://ontology.security.amazon.dev/foundation/diagram-visualization/05cc531c-d241-49c3-80dc-bd3777c5426f" />
              <IRI resource="https://ontology.security.amazon.dev/foundation/graph-structure/0b4eeac8-04e5-4e85-869c-bd56fb947b7b" property="http://www.w3.org/1999/02/22-rdf-syntax-ns#type" />
              <StringLiteral content="Amazon Route 53" property="http://www.w3.org/2000/01/rdf-schema#label" />
              <StringLiteral content="5zpTftzPDePtc_w1D5Yql" property="https://ontology.security.amazon.dev/foundation/diagram-visualization/a2255956-c3df-4c2c-b489-c307f68abc97" />
            </SemanticDataContainer>
          </ResourceDescriptor>
        </mxCell>
        <object label="" stencilType="generic-channel" id="xCtcc4uWcP11O1_l7EfZ-12">
          <mxCell style="edgeStyle=orthogonalEdgeStyle;rounded=0;html=1;exitX=1;exitY=0.5;exitDx=0;exitDy=0;jettySize=auto;orthogonalLoop=1;startArrow=classic;startFill=1;" edge="1" rdfUpgraded="1" assetTypeVersion="3" pageId="G84zxL6PhhiwGJSVpWmhd" parent="1" source="xCtcc4uWcP11O1_l7EfZ-15">
            <mxGeometry relative="1" as="geometry">
              <mxPoint x="603" y="115" as="targetPoint" />
            </mxGeometry>
            <ResourceDescriptor resource="urn:x-design-inspector:v1:genid-01JNPBQX06E707JFZMGSZ73NAT-r81hTQU4Ieu1EthY3rdWw-11" serialization-version="v0" as="resourceDescriptor">
              <SemanticDataContainer serialization-version="v0">
                <IRI resource="urn:x-design-inspector:v1:genid-01JNPBQX06E707JFZMGSZ73NAT-ZNXEk7bjc3LNWms8tauXj" property="https://ontology.security.amazon.dev/foundation/graph-structure/d1fc066e-3862-4ae0-8304-6cef42f40a50" />
                <IRI resource="https://ontology.security.amazon.dev/design-inspector/components/84a80b5f-5642-4a17-9585-ebfdb65f4bec" property="https://ontology.security.amazon.dev/foundation/system-modeling/04539597-4283-4f65-8090-ae67f9d3e949" />
                <StringLiteral content="G84zxL6PhhiwGJSVpWmhd" property="https://ontology.security.amazon.dev/foundation/diagram-visualization/05cc531c-d241-49c3-80dc-bd3777c5426f" />
                <IRI resource="https://ontology.security.amazon.dev/foundation/graph-structure/65157620-74b7-470e-bd9d-b9bf56b6cb4b" property="http://www.w3.org/1999/02/22-rdf-syntax-ns#type" />
                <StringLiteral content="r81hTQU4Ieu1EthY3rdWw-11" property="https://ontology.security.amazon.dev/foundation/diagram-visualization/a2255956-c3df-4c2c-b489-c307f68abc97" />
                <IRI resource="urn:x-design-inspector:v1:genid-01JNPBQX06E707JFZMGSZ73NAT-jHwHK_QL4osNtYF71jmv8" property="https://ontology.security.amazon.dev/foundation/graph-structure/617be0ed-cf17-4a01-a75d-81ed3a472532" />
              </SemanticDataContainer>
            </ResourceDescriptor>
          </mxCell>
        </object>
        <object label="" stencilType="generic-channel" id="xCtcc4uWcP11O1_l7EfZ-13">
          <mxCell style="edgeStyle=orthogonalEdgeStyle;rounded=0;html=1;startArrow=classic;startFill=1;jettySize=auto;orthogonalLoop=1;entryX=0;entryY=0.5;entryDx=0;entryDy=0;" edge="1" rdfUpgraded="1" assetTypeVersion="3" pageId="G84zxL6PhhiwGJSVpWmhd" parent="1" source="xCtcc4uWcP11O1_l7EfZ-15" target="xCtcc4uWcP11O1_l7EfZ-17">
            <mxGeometry relative="1" as="geometry">
              <Array as="points">
                <mxPoint x="353" y="115" />
                <mxPoint x="353" y="257" />
              </Array>
            </mxGeometry>
            <ResourceDescriptor resource="urn:x-design-inspector:v1:genid-01JNPBQX06E707JFZMGSZ73NAT-r81hTQU4Ieu1EthY3rdWw-12" serialization-version="v0" as="resourceDescriptor">
              <SemanticDataContainer serialization-version="v0">
                <IRI resource="urn:x-design-inspector:v1:genid-01JNPBQX06E707JFZMGSZ73NAT-ZNXEk7bjc3LNWms8tauXj" property="https://ontology.security.amazon.dev/foundation/graph-structure/d1fc066e-3862-4ae0-8304-6cef42f40a50" />
                <IRI resource="https://ontology.security.amazon.dev/design-inspector/components/84a80b5f-5642-4a17-9585-ebfdb65f4bec" property="https://ontology.security.amazon.dev/foundation/system-modeling/04539597-4283-4f65-8090-ae67f9d3e949" />
                <StringLiteral content="G84zxL6PhhiwGJSVpWmhd" property="https://ontology.security.amazon.dev/foundation/diagram-visualization/05cc531c-d241-49c3-80dc-bd3777c5426f" />
                <IRI resource="https://ontology.security.amazon.dev/foundation/graph-structure/65157620-74b7-470e-bd9d-b9bf56b6cb4b" property="http://www.w3.org/1999/02/22-rdf-syntax-ns#type" />
                <StringLiteral content="r81hTQU4Ieu1EthY3rdWw-12" property="https://ontology.security.amazon.dev/foundation/diagram-visualization/a2255956-c3df-4c2c-b489-c307f68abc97" />
                <IRI resource="urn:x-design-inspector:v1:genid-01JNPBQX06E707JFZMGSZ73NAT-oYdyJiD6SvZ31R2pJw2fu" property="https://ontology.security.amazon.dev/foundation/graph-structure/617be0ed-cf17-4a01-a75d-81ed3a472532" />
              </SemanticDataContainer>
            </ResourceDescriptor>
          </mxCell>
        </object>
        <object label="" stencilType="generic-channel" id="xCtcc4uWcP11O1_l7EfZ-14">
          <mxCell style="edgeStyle=orthogonalEdgeStyle;rounded=0;jumpSize=6;html=1;exitX=1;exitY=0.5;exitDx=0;exitDy=0;entryX=0;entryY=0.5;entryDx=0;entryDy=0;startArrow=classic;startFill=1;endSize=6;jettySize=auto;orthogonalLoop=1;strokeWidth=1;" edge="1" rdfUpgraded="1" assetTypeVersion="3" pageId="G84zxL6PhhiwGJSVpWmhd" parent="1" source="xCtcc4uWcP11O1_l7EfZ-15" target="xCtcc4uWcP11O1_l7EfZ-6">
            <mxGeometry relative="1" as="geometry">
              <Array as="points">
                <mxPoint x="353" y="115" />
                <mxPoint x="353" y="-7" />
              </Array>
            </mxGeometry>
            <ResourceDescriptor resource="urn:x-design-inspector:v1:genid-01JNPBQX06E707JFZMGSZ73NAT-r81hTQU4Ieu1EthY3rdWw-13" serialization-version="v0" as="resourceDescriptor">
              <SemanticDataContainer serialization-version="v0">
                <IRI resource="urn:x-design-inspector:v1:genid-01JNPBQX06E707JFZMGSZ73NAT-ZNXEk7bjc3LNWms8tauXj" property="https://ontology.security.amazon.dev/foundation/graph-structure/d1fc066e-3862-4ae0-8304-6cef42f40a50" />
                <IRI resource="https://ontology.security.amazon.dev/design-inspector/components/84a80b5f-5642-4a17-9585-ebfdb65f4bec" property="https://ontology.security.amazon.dev/foundation/system-modeling/04539597-4283-4f65-8090-ae67f9d3e949" />
                <StringLiteral content="G84zxL6PhhiwGJSVpWmhd" property="https://ontology.security.amazon.dev/foundation/diagram-visualization/05cc531c-d241-49c3-80dc-bd3777c5426f" />
                <IRI resource="https://ontology.security.amazon.dev/foundation/graph-structure/65157620-74b7-470e-bd9d-b9bf56b6cb4b" property="http://www.w3.org/1999/02/22-rdf-syntax-ns#type" />
                <StringLiteral content="r81hTQU4Ieu1EthY3rdWw-13" property="https://ontology.security.amazon.dev/foundation/diagram-visualization/a2255956-c3df-4c2c-b489-c307f68abc97" />
                <IRI resource="urn:x-design-inspector:v1:genid-01JNPBQX06E707JFZMGSZ73NAT-pYknL_7UqS5cD-sUftLGr" property="https://ontology.security.amazon.dev/foundation/graph-structure/617be0ed-cf17-4a01-a75d-81ed3a472532" />
              </SemanticDataContainer>
            </ResourceDescriptor>
          </mxCell>
        </object>
        <mxCell id="xCtcc4uWcP11O1_l7EfZ-15" value="&lt;b&gt;TeamCity Server&lt;br&gt;Task&lt;/b&gt;" style="shape=image;verticalLabelPosition=bottom;verticalAlign=top;aspect=fixed;imageAspect=0;image=data:image/svg+xml,PHN2ZyB4bWxucz0iaHR0cDovL3d3dy53My5vcmcvMjAwMC9zdmciIHhtbG5zOnhsaW5rPSJodHRwOi8vd3d3LnczLm9yZy8xOTk5L3hsaW5rIiB3aWR0aD0iNDhweCIgaGVpZ2h0PSI0OHB4IiB2aWV3Qm94PSIwIDAgNDggNDgiIHZlcnNpb249IjEuMSI+JiN4YTsgICAgPHRpdGxlPkljb24tUmVzb3VyY2UvQ29udGFpbmVycy9SZXNfQW1hem9uLUVsYXN0aWMtQ29udGFpbmVyLVNlcnZpY2VfVGFza180ODwvdGl0bGU+JiN4YTsgICAgPGcgaWQ9Ikljb24tUmVzb3VyY2UvQ29udGFpbmVycy9SZXNfQW1hem9uLUVsYXN0aWMtQ29udGFpbmVyLVNlcnZpY2VfVGFza180OCIgc3Ryb2tlPSJub25lIiBzdHJva2Utd2lkdGg9IjEiIGZpbGw9Im5vbmUiIGZpbGwtcnVsZT0iZXZlbm9kZCI+JiN4YTsgICAgICAgIDxwYXRoIGQ9Ik0yMC4yNSwzNi4zNzUgTDM2LDM2LjM3NSBMMzYsMzQuMzc1IEwyMC4yNSwzNC4zNzUgTDIwLjI1LDM2LjM3NSBaIE0yMC4yNSwyNC4xMjUgTDM2LDI0LjEyNSBMMzYsMjIuMTI1IEwyMC4yNSwyMi4xMjUgTDIwLjI1LDI0LjEyNSBaIE0yMC4yNSwxMS44NzUgTDM2LDExLjg3NSBMMzYsOS44NzUgTDIwLjI1LDkuODc1IEwyMC4yNSwxMS44NzUgWiBNMTMuMzc1LDM3IEwxNi42MjUsMzcgTDE2LjYyNSwzMy43NSBMMTMuMzc1LDMzLjc1IEwxMy4zNzUsMzcgWiBNMTIuMzc1LDM5IEwxNy42MjUsMzkgQzE4LjE3OCwzOSAxOC42MjUsMzguNTUzIDE4LjYyNSwzOCBMMTguNjI1LDMyLjc1IEMxOC42MjUsMzIuMTk4IDE4LjE3OCwzMS43NSAxNy42MjUsMzEuNzUgTDEyLjM3NSwzMS43NSBDMTEuODIyLDMxLjc1IDExLjM3NSwzMi4xOTggMTEuMzc1LDMyLjc1IEwxMS4zNzUsMzggQzExLjM3NSwzOC41NTMgMTEuODIyLDM5IDEyLjM3NSwzOSBMMTIuMzc1LDM5IFogTTEzLjM3NSwyNC43NSBMMTYuNjI1LDI0Ljc1IEwxNi42MjUsMjEuNSBMMTMuMzc1LDIxLjUgTDEzLjM3NSwyNC43NSBaIE0xMi4zNzUsMjYuNzUgTDE3LjYyNSwyNi43NSBDMTguMTc4LDI2Ljc1IDE4LjYyNSwyNi4zMDMgMTguNjI1LDI1Ljc1IEwxOC42MjUsMjAuNSBDMTguNjI1LDE5Ljk0OCAxOC4xNzgsMTkuNSAxNy42MjUsMTkuNSBMMTIuMzc1LDE5LjUgQzExLjgyMiwxOS41IDExLjM3NSwxOS45NDggMTEuMzc1LDIwLjUgTDExLjM3NSwyNS43NSBDMTEuMzc1LDI2LjMwMyAxMS44MjIsMjYuNzUgMTIuMzc1LDI2Ljc1IEwxMi4zNzUsMjYuNzUgWiBNMTMuMzc1LDEyLjUgTDE2LjYyNSwxMi41IEwxNi42MjUsOS4yNSBMMTMuMzc1LDkuMjUgTDEzLjM3NSwxMi41IFogTTEyLjM3NSwxNC41IEwxNy42MjUsMTQuNSBDMTguMTc4LDE0LjUgMTguNjI1LDE0LjA1MyAxOC42MjUsMTMuNSBMMTguNjI1LDguMjUgQzE4LjYyNSw3LjY5OCAxOC4xNzgsNy4yNSAxNy42MjUsNy4yNSBMMTIuMzc1LDcuMjUgQzExLjgyMiw3LjI1IDExLjM3NSw3LjY5OCAxMS4zNzUsOC4yNSBMMTEuMzc1LDEzLjUgQzExLjM3NSwxNC4wNTMgMTEuODIyLDE0LjUgMTIuMzc1LDE0LjUgTDEyLjM3NSwxNC41IFogTTksNDQgTDM4LjUsNDQgTDM4LjUsNCBMOSw0IEw5LDQ0IFogTTM5LjUsMiBMOCwyIEM3LjQ0NywyIDcsMi40NDggNywzIEw3LDQ1IEM3LDQ1LjU1MyA3LjQ0Nyw0NiA4LDQ2IEwzOS41LDQ2IEM0MC4wNTMsNDYgNDAuNSw0NS41NTMgNDAuNSw0NSBMNDAuNSwzIEM0MC41LDIuNDQ4IDQwLjA1MywyIDM5LjUsMiBMMzkuNSwyIFoiIGlkPSJBbWF6b24tRWxhc3RpYy1Db250YWluZXItU2VydmljZV9UYXNrX1Jlc291cmNlLUljb25fbGlnaHQtYmciIGZpbGw9IiNFRDcxMDAiLz4mI3hhOyAgICA8L2c+JiN4YTs8L3N2Zz4;html=1;" vertex="1" rdfUpgraded="1" assetTypeVersion="3" parent="1">
          <mxGeometry x="212.5" y="80" width="70" height="70" as="geometry" />
          <ResourceDescriptor resource="urn:x-design-inspector:v1:genid-01JNPBQX06E707JFZMGSZ73NAT-ZNXEk7bjc3LNWms8tauXj" serialization-version="v0" as="resourceDescriptor">
            <SemanticDataContainer serialization-version="v0">
              <IRI resource="https://ontology.security.amazon.dev/design-inspector/stencils" property="http://www.w3.org/2000/01/rdf-schema#isDefinedBy" />
              <IRI resource="https://ontology.security.amazon.dev/design-inspector/components/5ed19de0-8d9e-4bc6-a31e-3ccd560e09a2" property="https://ontology.security.amazon.dev/foundation/system-modeling/04539597-4283-4f65-8090-ae67f9d3e949" />
              <StringLiteral content="G84zxL6PhhiwGJSVpWmhd" property="https://ontology.security.amazon.dev/foundation/diagram-visualization/05cc531c-d241-49c3-80dc-bd3777c5426f" />
              <IRI resource="https://ontology.security.amazon.dev/foundation/graph-structure/0b4eeac8-04e5-4e85-869c-bd56fb947b7b" property="http://www.w3.org/1999/02/22-rdf-syntax-ns#type" />
              <StringLiteral content="TeamCity ServerTask" property="http://www.w3.org/2000/01/rdf-schema#label" />
              <StringLiteral content="ZNXEk7bjc3LNWms8tauXj" property="https://ontology.security.amazon.dev/foundation/diagram-visualization/a2255956-c3df-4c2c-b489-c307f68abc97" />
            </SemanticDataContainer>
          </ResourceDescriptor>
        </mxCell>
        <mxCell id="xCtcc4uWcP11O1_l7EfZ-17" value="&lt;b&gt;Amazon EFS&lt;/b&gt;" style="shape=image;verticalLabelPosition=bottom;verticalAlign=top;aspect=fixed;imageAspect=0;image=data:image/svg+xml,PHN2ZyB4bWxucz0iaHR0cDovL3d3dy53My5vcmcvMjAwMC9zdmciIHhtbG5zOnhsaW5rPSJodHRwOi8vd3d3LnczLm9yZy8xOTk5L3hsaW5rIiB3aWR0aD0iODBweCIgaGVpZ2h0PSI4MHB4IiB2aWV3Qm94PSIwIDAgODAgODAiIHZlcnNpb249IjEuMSI+JiN4YTsgICAgPHRpdGxlPkljb24tQXJjaGl0ZWN0dXJlLzY0L0FyY2hfQW1hem9uLUVGU182NDwvdGl0bGU+JiN4YTsgICAgPGcgaWQ9Ikljb24tQXJjaGl0ZWN0dXJlLzY0L0FyY2hfQW1hem9uLUVGU182NCIgc3Ryb2tlPSJub25lIiBzdHJva2Utd2lkdGg9IjEiIGZpbGw9Im5vbmUiIGZpbGwtcnVsZT0iZXZlbm9kZCI+JiN4YTsgICAgICAgIDxnIGlkPSJJY29uLUFyY2hpdGVjdHVyZS1CRy82NC9TdG9yYWdlIiBmaWxsPSIjN0FBMTE2Ij4mI3hhOyAgICAgICAgICAgIDxyZWN0IGlkPSJSZWN0YW5nbGUiIHg9IjAiIHk9IjAiIHdpZHRoPSI4MCIgaGVpZ2h0PSI4MCIvPiYjeGE7ICAgICAgICA8L2c+JiN4YTsgICAgICAgIDxnIGlkPSJJY29uLVNlcnZpY2UvNjQvQW1hem9uLUVGU182NCIgdHJhbnNmb3JtPSJ0cmFuc2xhdGUoMTEuOTgyMjE0LCAxMi4wMDAwMDApIiBmaWxsPSIjRkZGRkZGIj4mI3hhOyAgICAgICAgICAgIDxwYXRoIGQ9Ik0xOS4zOTUzNDYzLDEyLjAyNDQyOTQgQzI1LjY1OTQ1ODIsOS40MDQzMzU4NyAzMC4wOTU1Mzc0LDEyLjg1MDQ1ODkgMzEuNzExNTY2MywxNC40NTI1MTYyIEMzMy4wMjk1ODk4LDE1Ljc2MTU2MjkgMzQuMDU3NjA4MiwxNy40MzM2MjI2IDM0Ljc2NzYyMDksMTkuNDE5NjkzNiBDMzQuODkwNjIzLDE5Ljc2NTcwNTkgMzUuMTk1NjI4NSwyMC4wMTY3MTQ5IDM1LjU1ODYzNSwyMC4wNzE3MTY4IEMzNS45MjY2NDE1LDIwLjEyMjcxODcgMzYuMjg3NjQ4LDE5Ljk3ODcxMzUgMzYuNTA3NjUxOSwxOS42ODQ3MDMgQzM3LjI5NTY2NiwxOC42MzY2NjU2IDM4LjQ0OTY4NjYsMTguMDM1NjQ0MSAzOS42NzA3MDg0LDE4LjAzNTY0NDEgQzQxLjQ5NTc0MSwxOC4wMzU2NDQxIDQzLjcwNzc4MDUsMTkuNDIwNjkzNiA0My45MzY3ODQ2LDIzLjMyMzgzMyBDNDMuOTYyNzg1LDIzLjc3NDg0OTEgNDQuMjg3NzkwOSwyNC4xNTA4NjI1IDQ0LjcyOTc5ODcsMjQuMjQzODY1OSBDNDkuMjYyODc5NywyNS4xOTU4OTk5IDUxLjU2MTkyMDcsMjcuNzEwOTg5NyA1MS41NjE5MjA3LDMxLjcxNjEzMjcgQzUxLjU2MTkyMDcsMzUuNDM4MjY1NyA0OS44NTc4OTAzLDM3LjczODM0NzggNDYuNDk4ODMwMywzOC41NTMzNzY5IEw0Ni45Njg4Mzg3LDQwLjQ5NjQ0NjMgQzUxLjIyMDkxNDcsMzkuNDY2NDA5NSA1My41NjE5NTY1LDM2LjM0ODI5ODIgNTMuNTYxOTU2NSwzMS43MTYxMzI3IEM1My41NjE5NTY1LDI3LjAwMDk2NDMgNTAuODM1OTA3OCwyMy43MzQ4NDc3IDQ1Ljg2NTgxOSwyMi40NTU4MDIgQzQ1LjMyMzgwOTQsMTguMDI3NjQzOCA0Mi40MjY3NTc2LDE2LjAzNTU3MjcgMzkuNjcwNzA4NCwxNi4wMzU1NzI3IEMzOC4zNTM2ODQ5LDE2LjAzNTU3MjcgMzcuMDk3NjYyNSwxNi40ODM1ODg3IDM2LjA2MTY0NCwxNy4zMDA2MTc5IEMzNS4zMDA2MzA0LDE1LjY1MDU1ODkgMzQuMzE1NjEyOCwxNC4yMjA1MDc5IDMzLjEyMTU5MTUsMTMuMDMyNDY1NCBDMjkuMTU3NTIwNyw5LjEwNzMyNTI2IDIzLjc0MDQyMzksOC4wNDAyODcxNSAxOC42MjMzMzI2LDEwLjE3OTM2MzUgQzE0LjI0NzI1NDQsMTIuMDE1NDI5MSAxMC45NDcxOTU1LDE3LjA3NjYwOTkgMTAuOTQ3MTk1NSwyMS45NTQ3ODQxIEMxMC45NDcxOTU1LDIyLjE5NDc5MjcgMTAuOTU1MTk1NiwyMi40NDE4MDE1IDEwLjk3MDE5NTksMjIuNjk2ODEwNiBDNi45NTMxMjQxNiwyNC4wMTg4NTc4IDQuNTgyMDgxODIsMjcuMzExOTc1NCA0LjU4MjA4MTgyLDMxLjY1ODEzMDYgQzQuNTgyMDgxODIsMzEuODc3MTM4NSA0LjU5MjA4MiwzMi4wOTUxNDYzIDQuNjA0MDgyMjIsMzIuMzA3MTUzOCBDNC44MTEwODU5MSwzNi4wNjUyODggNy4zMjExMzA3MywzOS4zMTU0MDQxIDEwLjk5OTE5NjQsNDAuNTg1NDQ5NSBMMTEuNjUxMjA4MSwzOC42OTQzODE5IEM4Ljc0NjE1NjE4LDM3LjY5MTM0NjEgNi43NjMxMjA3NywzNS4xNDAyNTUgNi42MDExMTc4OCwzMi4yMDExNSBDNi41OTIxMTc3MiwzMi4wMjUxNDM4IDYuNTgyMTE3NTQsMzEuODQyMTM3MiA2LjU4MjExNzU0LDMxLjY1ODEzMDYgQzYuNTgyMTE3NTQsMjYuNTc0OTQ5MSAxMC4xNTUxODEzLDI0LjkyNzg5MDMgMTIuMjg0MjE5NCwyNC4zOTg4NzE0IEMxMi43NzMyMjgxLDI0LjI3Njg2NyAxMy4wOTUyMzM4LDIzLjgwOTg1MDQgMTMuMDM2MjMyOCwyMy4zMDg4MzI1IEMxMi45NzYyMzE3LDIyLjgxMzgxNDggMTIuOTQ3MjMxMiwyMi4zNzA3OTkgMTIuOTQ3MjMxMiwyMS45NTQ3ODQxIEMxMi45NDcyMzEyLDE3LjkwMjYzOTQgMTUuNzgwMjgxOCwxMy41NDE0ODM2IDE5LjM5NTM0NjMsMTIuMDI0NDI5NCBMMTkuMzk1MzQ2MywxMi4wMjQ0Mjk0IFogTTM5Ljk5OTcxNDMsMzMuMDAxMTc4NiBDMzkuOTk5NzE0MywzMi42MDQxNjQ0IDM5LjkxNDcxMjgsMzIuMzA1MTUzOCAzOS43NTg3MSwzMi4xNTkxNDg1IEMzOS41ODc3MDY5LDMyLjAwMDE0MjkgMzkuMjg5NzAxNiwzMS45ODUxNDIzIDM5LjA2NjY5NzYsMzEuOTk5MTQyOCBMMjUuOTk5NDY0MywzMi4wMDExNDI5IEMyNS40NDc0NTQ0LDMyLjAwMTE0MjkgMjQuOTk5NDQ2NCwzMS41NTMxMjY5IDI0Ljk5OTQ0NjQsMzEuMDAxMTA3MiBDMjQuOTk5NDQ2NCwzMC43MzAwOTc1IDI0Ljg5ODQ0NDYsMjkuOTcxMDcwNCAyNC43ODI0NDI1LDI5LjUwMDA1MzYgTDIxLjMyMzM4MDgsMjkuNTAwMDUzNiBDMjEuMTcwMzc4LDI5Ljk2MDA3IDIxLjAwNjM3NTEsMzAuNzQxMDk3OSAyMC45OTkzNzUsMzEuMDA1MTA3MyBDMjAuOTg1Mzc0NywzMS41NDcxMjY3IDIwLjU0MTM2NjgsMzIuMDAxMTQyOSAxOS45OTkzNTcxLDMyLjAwMTE0MjkgTDE2Ljk5OTMwMzYsMzIuMDAxMTQyOSBDMTYuNzA2Mjk4MywzMS45ODIxNDIyIDE2LjQxMTI5MzEsMzIuMDAwMTQyOSAxNi4yNDEyOSwzMi4xNTkxNDg1IEMxNi4wODUyODcyLDMyLjMwNTE1MzggMTUuOTk5Mjg1NywzMi42MDQxNjQ0IDE1Ljk5OTI4NTcsMzMuMDAxMTc4NiBMMTUuOTk5Mjg1Nyw0Ny4wMDE2Nzg2IEwzOS45OTk3MTQzLDQ3LjAwMTY3ODYgTDM5Ljk5OTcxNDMsMzMuMDAxMTc4NiBaIE00MS45OTk3NSwzNS4wMDEyNSBMNDEuOTk5NzUsNDIuMjI5NTA4MiBMNDQuNTgxNzk2MSwzNS4wMDEyNSBMNDEuOTk5NzUsMzUuMDAxMjUgWiBNNDEuOTQxNzQ5LDQ4LjMzODcyNjQgTDQxLjkzMjc0ODgsNDguMzM1NzI2MyBDNDEuNzk0NzQ2Myw0OC43MjE3NDAxIDQxLjQzNDczOTksNDkuMDAxNzUwMSA0MC45OTk3MzIxLDQ5LjAwMTc1MDEgTDE0Ljk5OTI2NzgsNDkuMDAxNzUwMSBDMTQuNDQ3MjU4LDQ5LjAwMTc1MDEgMTMuOTk5MjUsNDguNTUzNzM0MSAxMy45OTkyNSw0OC4wMDE3MTQzIEwxMy45OTkyNSwzMy4wMDExNzg2IEMxMy45OTkyNSwzMS43NzUxMzQ4IDE0LjQ3NTI1ODUsMzEuMDcyMTA5NyAxNC44NzQyNjU2LDMwLjY5ODA5NjQgQzE1LjI1NzI3MjUsMzAuMzQwMDgzNiAxNS45MzcyODQ2LDI5LjkyMTA2ODYgMTcuMDY2MzA0OCwzMC4wMDQwNzE2IEwxOS4xMTYzNDE0LDMwLjAwMjA3MTUgQzE5LjI5NDM0NDUsMjguOTY3MDM0NSAxOS43MzgzNTI1LDI3LjQ5OTk4MjEgMjAuODA3MzcxNiwyNy40OTk5ODIxIEwyNS4zNTk0NTI4LDI3LjQ5OTk4MjEgQzI1LjQyMDQ1MzksMjcuNDk5OTgyMSAyNS40ODI0NTUsMjcuNTA1OTgyNCAyNS41NDM0NTYxLDI3LjUxNjk4MjcgQzI2LjQ4NDQ3MjksMjcuNjkyOTg5IDI2LjgxNzQ3ODksMjkuMDI4MDM2NyAyNi45MzU0ODEsMzAuMDAxMDcxNSBMMzguOTk5Njk2NCwzMC4wMDEwNzE1IEM0MC4wNTY3MTUzLDI5LjkyODA2ODkgNDAuNzQxNzI3NSwzMC4zNDAwODM2IDQxLjEyNDczNDQsMzAuNjk4MDk2NCBDNDEuNTI0NzQxNSwzMS4wNzIxMDk3IDQxLjk5OTc1LDMxLjc3NTEzNDggNDEuOTk5NzUsMzMuMDAxMTc4NiBMNDUuOTk5ODIxNCwzMy4wMDExNzg2IEM0Ni4zMjU4MjcyLDMzLjAwMTE3ODYgNDYuNjI5ODMyNywzMy4xNTkxODQzIDQ2LjgxNzgzNiwzMy40MjUxOTM4IEM0Ny4wMDQ4Mzk0LDMzLjY5MTIwMzMgNDcuMDUwODQwMiwzNC4wMzEyMTU0IDQ2Ljk0MTgzODIsMzQuMzM3MjI2MyBMNDEuOTQxNzQ5LDQ4LjMzODcyNjQgWiBNNTMuOTk5OTY0Myw1Mi41ODY4NzgxIEw0Ni4zOTM4Mjg1LDQ0Ljk4MDYwNjUgTDQ0Ljk3OTgwMzIsNDYuMzk0NjU3IEw1Mi41ODQ5MzksNTMuOTk5OTI4NiBMNDcuMDgxODQwNyw1My45OTk5Mjg2IEw0Ny4wODE4NDA3LDU2IEw1NC45OTk5ODIxLDU2IEM1NS41NTI5OTIsNTYgNTYsNTUuNTUxOTg0IDU2LDU0Ljk5OTk2NDMgTDU2LDQ3LjA4MTY4MTUgTDUzLjk5OTk2NDMsNDcuMDgxNjgxNSBMNTMuOTk5OTY0Myw1Mi41ODY4NzgxIFogTTEwLjY0MjE5LDQ0Ljk0NTYwNTIgTDIuMDAwMDM1NzEsNTIuNzQ4ODgzOSBMMi4wMDAwMzU3MSw0Ny4wODE2ODE1IEwwLDQ3LjA4MTY4MTUgTDAsNTQuOTk5OTY0MyBDMCw1NS41NTE5ODQgMC40NDgwMDgsNTYgMS4wMDAwMTc4Niw1NiBMOS45MTkxNzcxMyw1NiBMOS45MTkxNzcxMyw1My45OTk5Mjg2IEwzLjU5OTA2NDI3LDUzLjk5OTkyODYgTDExLjk4MjIxNCw0Ni40Mjk2NTgyIEwxMC42NDIxOSw0NC45NDU2MDUyIFogTTU0Ljk5OTk4MjEsMCBMNDYuMDgxODIyOSwwIEw0Ni4wODE4MjI5LDIuMDAwMDcxNDMgTDUyLjc0ODk0MTksMi4wMDAwNzE0MyBMNDQuOTQ0ODAyNiwxMC42NDIzODAxIEw0Ni40Mjg4MjkxLDExLjk4MjQyNzkgTDUzLjk5OTk2NDMsMy41OTkxMjg1NCBMNTMuOTk5OTY0Myw5LjkxOTM1NDI2IEw1Niw5LjkxOTM1NDI2IEw1NiwxLjAwMDAzNTcyIEM1NiwwLjQ0ODAxNjAwMSA1NS41NTI5OTIsMCA1NC45OTk5ODIxLDAgTDU0Ljk5OTk4MjEsMCBaIE0yLjAwMDAzNTcxLDkuOTE5MzU0MjYgTDAsOS45MTkzNTQyNiBMMCwxLjAwMDAzNTcyIEMwLDAuNDQ4MDE2MDAxIDAuNDQ4MDA4LDAgMS4wMDAwMTc4NiwwIEw5LjkxOTE3NzEzLDAgTDkuOTE5MTc3MTMsMi4wMDAwNzE0MyBMMy40MTQwNjA5NywyLjAwMDA3MTQzIEwxMi4wMTkyMTQ2LDEwLjYwNTM3ODggTDEwLjYwNTE4OTQsMTIuMDE5NDI5MyBMMi4wMDAwMzU3MSwzLjQxNTEyMTk3IEwyLjAwMDAzNTcxLDkuOTE5MzU0MjYgWiIgaWQ9IkFtYXpvbi1FRlNfSWNvbl82NF9TcXVpZCIvPiYjeGE7ICAgICAgICA8L2c+JiN4YTsgICAgPC9nPiYjeGE7PC9zdmc+;html=1;" vertex="1" rdfUpgraded="1" assetTypeVersion="3" parent="1">
          <mxGeometry x="400" y="222" width="70" height="70" as="geometry" />
          <ResourceDescriptor resource="urn:x-design-inspector:v1:genid-01JNPBQX06E707JFZMGSZ73NAT-oYdyJiD6SvZ31R2pJw2fu" serialization-version="v0" as="resourceDescriptor">
            <SemanticDataContainer serialization-version="v0">
              <IRI resource="https://ontology.security.amazon.dev/design-inspector/stencils" property="http://www.w3.org/2000/01/rdf-schema#isDefinedBy" />
              <IRI resource="https://ontology.security.amazon.dev/design-inspector/components/14ab38d9-92c5-4bc3-a88a-18e56334ffb0" property="https://ontology.security.amazon.dev/foundation/system-modeling/04539597-4283-4f65-8090-ae67f9d3e949" />
              <StringLiteral content="G84zxL6PhhiwGJSVpWmhd" property="https://ontology.security.amazon.dev/foundation/diagram-visualization/05cc531c-d241-49c3-80dc-bd3777c5426f" />
              <IRI resource="https://ontology.security.amazon.dev/foundation/graph-structure/0b4eeac8-04e5-4e85-869c-bd56fb947b7b" property="http://www.w3.org/1999/02/22-rdf-syntax-ns#type" />
              <StringLiteral content="Amazon EFS" property="http://www.w3.org/2000/01/rdf-schema#label" />
              <StringLiteral content="oYdyJiD6SvZ31R2pJw2fu" property="https://ontology.security.amazon.dev/foundation/diagram-visualization/a2255956-c3df-4c2c-b489-c307f68abc97" />
            </SemanticDataContainer>
          </ResourceDescriptor>
        </mxCell>
        <object label="" stencilType="generic-channel" id="xCtcc4uWcP11O1_l7EfZ-18">
          <mxCell style="edgeStyle=orthogonalEdgeStyle;rounded=0;html=1;jettySize=auto;orthogonalLoop=1;" edge="1" rdfUpgraded="1" assetTypeVersion="3" pageId="G84zxL6PhhiwGJSVpWmhd" parent="1" source="xCtcc4uWcP11O1_l7EfZ-23" target="xCtcc4uWcP11O1_l7EfZ-21">
            <mxGeometry relative="1" as="geometry">
              <mxPoint x="-66" y="115" as="sourcePoint" />
            </mxGeometry>
            <ResourceDescriptor resource="urn:x-design-inspector:v1:genid-01JNPBQX06E707JFZMGSZ73NAT-r81hTQU4Ieu1EthY3rdWw-14" serialization-version="v0" as="resourceDescriptor">
              <SemanticDataContainer serialization-version="v0">
                <IRI resource="urn:x-design-inspector:v1:genid-01JNPBQX06E707JFZMGSZ73NAT-7EjNTZzHRdGjNUZSzJQ9J" property="https://ontology.security.amazon.dev/foundation/graph-structure/d1fc066e-3862-4ae0-8304-6cef42f40a50" />
                <IRI resource="https://ontology.security.amazon.dev/design-inspector/components/84a80b5f-5642-4a17-9585-ebfdb65f4bec" property="https://ontology.security.amazon.dev/foundation/system-modeling/04539597-4283-4f65-8090-ae67f9d3e949" />
                <StringLiteral content="G84zxL6PhhiwGJSVpWmhd" property="https://ontology.security.amazon.dev/foundation/diagram-visualization/05cc531c-d241-49c3-80dc-bd3777c5426f" />
                <IRI resource="https://ontology.security.amazon.dev/foundation/graph-structure/65157620-74b7-470e-bd9d-b9bf56b6cb4b" property="http://www.w3.org/1999/02/22-rdf-syntax-ns#type" />
                <StringLiteral content="r81hTQU4Ieu1EthY3rdWw-14" property="https://ontology.security.amazon.dev/foundation/diagram-visualization/a2255956-c3df-4c2c-b489-c307f68abc97" />
                <IRI resource="urn:x-design-inspector:v1:genid-01JNPBQX06E707JFZMGSZ73NAT-Cs-wYZz8fHuaANjJ2FskQ" property="https://ontology.security.amazon.dev/foundation/graph-structure/617be0ed-cf17-4a01-a75d-81ed3a472532" />
              </SemanticDataContainer>
            </ResourceDescriptor>
          </mxCell>
        </object>
        <object label="" stencilType="generic-channel" id="xCtcc4uWcP11O1_l7EfZ-20">
          <mxCell style="edgeStyle=orthogonalEdgeStyle;rounded=0;html=1;exitX=1;exitY=0.5;exitDx=0;exitDy=0;jettySize=auto;orthogonalLoop=1;" edge="1" rdfUpgraded="1" assetTypeVersion="3" pageId="G84zxL6PhhiwGJSVpWmhd" parent="1" source="xCtcc4uWcP11O1_l7EfZ-21" target="xCtcc4uWcP11O1_l7EfZ-15">
            <mxGeometry relative="1" as="geometry" />
            <ResourceDescriptor resource="urn:x-design-inspector:v1:genid-01JNPBQX06E707JFZMGSZ73NAT-r81hTQU4Ieu1EthY3rdWw-15" serialization-version="v0" as="resourceDescriptor">
              <SemanticDataContainer serialization-version="v0">
                <IRI resource="urn:x-design-inspector:v1:genid-01JNPBQX06E707JFZMGSZ73NAT-Cs-wYZz8fHuaANjJ2FskQ" property="https://ontology.security.amazon.dev/foundation/graph-structure/d1fc066e-3862-4ae0-8304-6cef42f40a50" />
                <IRI resource="https://ontology.security.amazon.dev/design-inspector/components/84a80b5f-5642-4a17-9585-ebfdb65f4bec" property="https://ontology.security.amazon.dev/foundation/system-modeling/04539597-4283-4f65-8090-ae67f9d3e949" />
                <StringLiteral content="G84zxL6PhhiwGJSVpWmhd" property="https://ontology.security.amazon.dev/foundation/diagram-visualization/05cc531c-d241-49c3-80dc-bd3777c5426f" />
                <IRI resource="https://ontology.security.amazon.dev/foundation/graph-structure/65157620-74b7-470e-bd9d-b9bf56b6cb4b" property="http://www.w3.org/1999/02/22-rdf-syntax-ns#type" />
                <StringLiteral content="r81hTQU4Ieu1EthY3rdWw-15" property="https://ontology.security.amazon.dev/foundation/diagram-visualization/a2255956-c3df-4c2c-b489-c307f68abc97" />
                <IRI resource="urn:x-design-inspector:v1:genid-01JNPBQX06E707JFZMGSZ73NAT-ZNXEk7bjc3LNWms8tauXj" property="https://ontology.security.amazon.dev/foundation/graph-structure/617be0ed-cf17-4a01-a75d-81ed3a472532" />
              </SemanticDataContainer>
            </ResourceDescriptor>
          </mxCell>
        </object>
        <object label="&lt;font style=&quot;color: rgb(255, 0, 0);&quot;&gt;teamcity_db_sg&lt;/font&gt;" stencilType="security-group" id="xCtcc4uWcP11O1_l7EfZ-5">
          <mxCell style="fillColor=none;strokeColor=#FF0000;verticalAlign=top;fontStyle=0;html=1;" vertex="1" rdfUpgraded="1" assetTypeVersion="3" parent="1">
            <mxGeometry x="338.5" y="-94" width="193" height="174" as="geometry" />
            <ResourceDescriptor resource="urn:x-design-inspector:v1:genid-01JNPBQX06E707JFZMGSZ73NAT-r81hTQU4Ieu1EthY3rdWw-6" serialization-version="v0" as="resourceDescriptor">
              <SemanticDataContainer serialization-version="v0">
                <StringLiteral content="G84zxL6PhhiwGJSVpWmhd" property="https://ontology.security.amazon.dev/foundation/diagram-visualization/05cc531c-d241-49c3-80dc-bd3777c5426f" />
                <IRI resource="https://ontology.security.amazon.dev/design-inspector/components/84a80b5f-5642-4a17-9585-ebfdb65f4bec" property="https://ontology.security.amazon.dev/foundation/system-modeling/04539597-4283-4f65-8090-ae67f9d3e949" />
                <IRI resource="https://ontology.security.amazon.dev/design-inspector/components/4f51991f-f3c6-4a47-9b00-013560ab92f4" property="http://www.w3.org/1999/02/22-rdf-syntax-ns#type" />
                <IRI resource="https://ontology.security.amazon.dev/foundation/graph-structure/0b4eeac8-04e5-4e85-869c-bd56fb947b7b" property="http://www.w3.org/1999/02/22-rdf-syntax-ns#type" />
                <StringLiteral content="teamcity_db_sg" property="http://www.w3.org/2000/01/rdf-schema#label" />
                <StringLiteral content="r81hTQU4Ieu1EthY3rdWw-6" property="https://ontology.security.amazon.dev/foundation/diagram-visualization/a2255956-c3df-4c2c-b489-c307f68abc97" />
              </SemanticDataContainer>
            </ResourceDescriptor>
          </mxCell>
        </object>
        <object label="&lt;font style=&quot;color: rgb(255, 0, 0);&quot;&gt;teamcity_efs_sg&lt;/font&gt;" stencilType="security-group" id="xCtcc4uWcP11O1_l7EfZ-10">
          <mxCell style="fillColor=none;strokeColor=#FF0000;verticalAlign=top;fontStyle=0;html=1;" vertex="1" rdfUpgraded="1" assetTypeVersion="3" parent="1">
            <mxGeometry x="338.5" y="170" width="193" height="174" as="geometry" />
            <ResourceDescriptor resource="urn:x-design-inspector:v1:genid-01JNPBQX06E707JFZMGSZ73NAT-r81hTQU4Ieu1EthY3rdWw-9" serialization-version="v0" as="resourceDescriptor">
              <SemanticDataContainer serialization-version="v0">
                <StringLiteral content="G84zxL6PhhiwGJSVpWmhd" property="https://ontology.security.amazon.dev/foundation/diagram-visualization/05cc531c-d241-49c3-80dc-bd3777c5426f" />
                <IRI resource="https://ontology.security.amazon.dev/design-inspector/components/84a80b5f-5642-4a17-9585-ebfdb65f4bec" property="https://ontology.security.amazon.dev/foundation/system-modeling/04539597-4283-4f65-8090-ae67f9d3e949" />
                <IRI resource="https://ontology.security.amazon.dev/design-inspector/components/4f51991f-f3c6-4a47-9b00-013560ab92f4" property="http://www.w3.org/1999/02/22-rdf-syntax-ns#type" />
                <IRI resource="https://ontology.security.amazon.dev/foundation/graph-structure/0b4eeac8-04e5-4e85-869c-bd56fb947b7b" property="http://www.w3.org/1999/02/22-rdf-syntax-ns#type" />
                <StringLiteral content="teamcity_efs_sg" property="http://www.w3.org/2000/01/rdf-schema#label" />
                <StringLiteral content="r81hTQU4Ieu1EthY3rdWw-9" property="https://ontology.security.amazon.dev/foundation/diagram-visualization/a2255956-c3df-4c2c-b489-c307f68abc97" />
              </SemanticDataContainer>
            </ResourceDescriptor>
          </mxCell>
        </object>
        <mxCell id="xCtcc4uWcP11O1_l7EfZ-21" value="&lt;b&gt;TeamCity Server&lt;br&gt;Service&lt;/b&gt;" style="shape=image;verticalLabelPosition=bottom;verticalAlign=top;aspect=fixed;imageAspect=0;image=data:image/svg+xml,PHN2ZyB4bWxucz0iaHR0cDovL3d3dy53My5vcmcvMjAwMC9zdmciIHhtbG5zOnhsaW5rPSJodHRwOi8vd3d3LnczLm9yZy8xOTk5L3hsaW5rIiB3aWR0aD0iNDhweCIgaGVpZ2h0PSI0OHB4IiB2aWV3Qm94PSIwIDAgNDggNDgiIHZlcnNpb249IjEuMSI+JiN4YTsgICAgPHRpdGxlPkljb24tUmVzb3VyY2UvQ29udGFpbmVycy9SZXNfQW1hem9uLUVsYXN0aWMtQ29udGFpbmVyLVNlcnZpY2VfU2VydmljZV80ODwvdGl0bGU+JiN4YTsgICAgPGcgaWQ9Ikljb24tUmVzb3VyY2UvQ29udGFpbmVycy9SZXNfQW1hem9uLUVsYXN0aWMtQ29udGFpbmVyLVNlcnZpY2VfU2VydmljZV80OCIgc3Ryb2tlPSJub25lIiBzdHJva2Utd2lkdGg9IjEiIGZpbGw9Im5vbmUiIGZpbGwtcnVsZT0iZXZlbm9kZCI+JiN4YTsgICAgICAgIDxwYXRoIGQ9Ik0yNC45MzMsMzguMjEzIEwzNy42NzQsMzguMjEzIEwzNy42NzQsMzYuMjEzIEwyNC45MzMsMzYuMjEzIEwyNC45MzMsMzguMjEzIFogTTI0LjkzMywyOC4zMDMgTDM3LjY3NCwyOC4zMDMgTDM3LjY3NCwyNi4zMDMgTDI0LjkzMywyNi4zMDMgTDI0LjkzMywyOC4zMDMgWiBNMjQuOTMzLDE4LjM5MyBMMzcuNjc0LDE4LjM5MyBMMzcuNjc0LDE2LjM5MyBMMjQuOTMzLDE2LjM5MyBMMjQuOTMzLDE4LjM5MyBaIE0xOS41NjEsMzguMzM3IEwyMS44MDgsMzguMzM3IEwyMS44MDgsMzYuMDkgTDE5LjU2MSwzNi4wOSBMMTkuNTYxLDM4LjMzNyBaIE0xOC41NjEsNDAuMzM3IEwyMi44MDgsNDAuMzM3IEMyMy4zNjEsNDAuMzM3IDIzLjgwOCwzOS44OSAyMy44MDgsMzkuMzM3IEwyMy44MDgsMzUuMDkgQzIzLjgwOCwzNC41MzcgMjMuMzYxLDM0LjA5IDIyLjgwOCwzNC4wOSBMMTguNTYxLDM0LjA5IEMxOC4wMDksMzQuMDkgMTcuNTYxLDM0LjUzNyAxNy41NjEsMzUuMDkgTDE3LjU2MSwzOS4zMzcgQzE3LjU2MSwzOS44OSAxOC4wMDksNDAuMzM3IDE4LjU2MSw0MC4zMzcgTDE4LjU2MSw0MC4zMzcgWiBNMTkuNTYxLDI4LjQyNyBMMjEuODA4LDI4LjQyNyBMMjEuODA4LDI2LjE4IEwxOS41NjEsMjYuMTggTDE5LjU2MSwyOC40MjcgWiBNMTguNTYxLDMwLjQyNyBMMjIuODA4LDMwLjQyNyBDMjMuMzYxLDMwLjQyNyAyMy44MDgsMjkuOTggMjMuODA4LDI5LjQyNyBMMjMuODA4LDI1LjE4IEMyMy44MDgsMjQuNjI3IDIzLjM2MSwyNC4xOCAyMi44MDgsMjQuMTggTDE4LjU2MSwyNC4xOCBDMTguMDA5LDI0LjE4IDE3LjU2MSwyNC42MjcgMTcuNTYxLDI1LjE4IEwxNy41NjEsMjkuNDI3IEMxNy41NjEsMjkuOTggMTguMDA5LDMwLjQyNyAxOC41NjEsMzAuNDI3IEwxOC41NjEsMzAuNDI3IFogTTE5LjU2MSwxOC41MTcgTDIxLjgwOCwxOC41MTcgTDIxLjgwOCwxNi4yNyBMMTkuNTYxLDE2LjI3IEwxOS41NjEsMTguNTE3IFogTTE4LjU2MSwyMC41MTcgTDIyLjgwOCwyMC41MTcgQzIzLjM2MSwyMC41MTcgMjMuODA4LDIwLjA3IDIzLjgwOCwxOS41MTcgTDIzLjgwOCwxNS4yNyBDMjMuODA4LDE0LjcxNyAyMy4zNjEsMTQuMjcgMjIuODA4LDE0LjI3IEwxOC41NjEsMTQuMjcgQzE4LjAwOSwxNC4yNyAxNy41NjEsMTQuNzE3IDE3LjU2MSwxNS4yNyBMMTcuNTYxLDE5LjUxNyBDMTcuNTYxLDIwLjA3IDE4LjAwOSwyMC41MTcgMTguNTYxLDIwLjUxNyBMMTguNTYxLDIwLjUxNyBaIE0xNi4wMjMsNDQgTDM5LjUwNiw0NCBMMzkuNTA2LDEyLjAyMiBMMTYuMDIzLDEyLjAyMiBMMTYuMDIzLDQ0IFogTTE0LjAyMiwxMS4wMjMgTDE0LjAyMiwzOS43NTMgTDExLjc3NSwzOS43NTMgTDExLjc3NSw3Ljc3NiBMMzUuMjU5LDcuNzc2IEwzNS4yNTksMTAuMDIzIEwxNS4wMjIsMTAuMDIzIEMxNC40NjksMTAuMDIzIDE0LjAyMiwxMC40NyAxNC4wMjIsMTEuMDIzIEwxNC4wMjIsMTEuMDIzIFogTTkuNzc1LDYuNzc2IEw5Ljc3NSwzNS45NzggTDgsMzUuOTc4IEw4LDQgTDMxLjQ4Myw0IEwzMS40ODMsNS43NzYgTDEwLjc3NSw1Ljc3NiBDMTAuMjIyLDUuNzc2IDkuNzc1LDYuMjIzIDkuNzc1LDYuNzc2IEw5Ljc3NSw2Ljc3NiBaIE00MC41MDYsMTAuMDIzIEwzNy4yNTksMTAuMDIzIEwzNy4yNTksNi43NzYgQzM3LjI1OSw2LjIyMyAzNi44MTEsNS43NzYgMzYuMjU5LDUuNzc2IEwzMy40ODMsNS43NzYgTDMzLjQ4MywzIEMzMy40ODMsMi40NDggMzMuMDM2LDIgMzIuNDgzLDIgTDcsMiBDNi40NDcsMiA2LDIuNDQ4IDYsMyBMNiwzNi45NzggQzYsMzcuNTMxIDYuNDQ3LDM3Ljk3OCA3LDM3Ljk3OCBMOS43NzUsMzcuOTc4IEw5Ljc3NSw0MC43NTMgQzkuNzc1LDQxLjMwNiAxMC4yMjIsNDEuNzUzIDEwLjc3NSw0MS43NTMgTDE0LjAyMiw0MS43NTMgTDE0LjAyMiw0NSBDMTQuMDIyLDQ1LjU1MyAxNC40NjksNDYgMTUuMDIyLDQ2IEw0MC41MDYsNDYgQzQxLjA1OCw0NiA0MS41MDYsNDUuNTUzIDQxLjUwNiw0NSBMNDEuNTA2LDExLjAyMyBDNDEuNTA2LDEwLjQ3IDQxLjA1OCwxMC4wMjMgNDAuNTA2LDEwLjAyMyBMNDAuNTA2LDEwLjAyMyBaIiBpZD0iQW1hem9uLUVsYXN0aWMtQ29udGFpbmVyLVNlcnZpY2VfU2VydmljZV9SZXNvdXJjZS1JY29uX2xpZ2h0LWJnIiBmaWxsPSIjRUQ3MTAwIi8+JiN4YTsgICAgPC9nPiYjeGE7PC9zdmc+;html=1;" vertex="1" rdfUpgraded="1" assetTypeVersion="3" parent="1">
          <mxGeometry x="83" y="80" width="70" height="70" as="geometry" />
          <ResourceDescriptor resource="urn:x-design-inspector:v1:genid-01JNPBQX06E707JFZMGSZ73NAT-Cs-wYZz8fHuaANjJ2FskQ" serialization-version="v0" as="resourceDescriptor">
            <SemanticDataContainer serialization-version="v0">
              <IRI resource="https://ontology.security.amazon.dev/design-inspector/stencils" property="http://www.w3.org/2000/01/rdf-schema#isDefinedBy" />
              <IRI resource="https://ontology.security.amazon.dev/design-inspector/components/7a0a940f-d22e-4b9f-a286-957841dce9ee" property="https://ontology.security.amazon.dev/foundation/system-modeling/04539597-4283-4f65-8090-ae67f9d3e949" />
              <StringLiteral content="G84zxL6PhhiwGJSVpWmhd" property="https://ontology.security.amazon.dev/foundation/diagram-visualization/05cc531c-d241-49c3-80dc-bd3777c5426f" />
              <IRI resource="https://ontology.security.amazon.dev/foundation/graph-structure/0b4eeac8-04e5-4e85-869c-bd56fb947b7b" property="http://www.w3.org/1999/02/22-rdf-syntax-ns#type" />
              <StringLiteral content="TeamCity ServerService" property="http://www.w3.org/2000/01/rdf-schema#label" />
              <StringLiteral content="Cs-wYZz8fHuaANjJ2FskQ" property="https://ontology.security.amazon.dev/foundation/diagram-visualization/a2255956-c3df-4c2c-b489-c307f68abc97" />
            </SemanticDataContainer>
          </ResourceDescriptor>
        </mxCell>
        <object label="&lt;font style=&quot;color: rgb(255, 0, 0);&quot;&gt;teamcity_alb_sg&lt;/font&gt;" stencilType="security-group" id="xCtcc4uWcP11O1_l7EfZ-11">
          <mxCell style="fillColor=none;strokeColor=#FF0000;verticalAlign=top;fontStyle=0;html=1;" vertex="1" rdfUpgraded="1" assetTypeVersion="3" parent="1">
            <mxGeometry x="41" y="43" width="264" height="152" as="geometry" />
            <ResourceDescriptor resource="urn:x-design-inspector:v1:genid-01JNPBQX06E707JFZMGSZ73NAT-r81hTQU4Ieu1EthY3rdWw-10" serialization-version="v0" as="resourceDescriptor">
              <SemanticDataContainer serialization-version="v0">
                <StringLiteral content="G84zxL6PhhiwGJSVpWmhd" property="https://ontology.security.amazon.dev/foundation/diagram-visualization/05cc531c-d241-49c3-80dc-bd3777c5426f" />
                <IRI resource="https://ontology.security.amazon.dev/design-inspector/components/84a80b5f-5642-4a17-9585-ebfdb65f4bec" property="https://ontology.security.amazon.dev/foundation/system-modeling/04539597-4283-4f65-8090-ae67f9d3e949" />
                <IRI resource="https://ontology.security.amazon.dev/design-inspector/components/4f51991f-f3c6-4a47-9b00-013560ab92f4" property="http://www.w3.org/1999/02/22-rdf-syntax-ns#type" />
                <IRI resource="https://ontology.security.amazon.dev/foundation/graph-structure/0b4eeac8-04e5-4e85-869c-bd56fb947b7b" property="http://www.w3.org/1999/02/22-rdf-syntax-ns#type" />
                <StringLiteral content="teamcity_alb_sg" property="http://www.w3.org/2000/01/rdf-schema#label" />
                <StringLiteral content="r81hTQU4Ieu1EthY3rdWw-10" property="https://ontology.security.amazon.dev/foundation/diagram-visualization/a2255956-c3df-4c2c-b489-c307f68abc97" />
              </SemanticDataContainer>
            </ResourceDescriptor>
          </mxCell>
        </object>
      </root>
    </mxGraphModel>
  </diagram>
</mxfile>
